<svg xmlns="http://www.w3.org/2000/svg" xmlns:xlink="http://www.w3.org/1999/xlink" width="1280" zoomAndPan="magnify" viewBox="0 0 960 599.999999" height="800" preserveAspectRatio="xMidYMid meet" version="1.0"><defs><clipPath id="d14f130179"><path d="M 106.714844 43.367188 L 852 43.367188 L 852 556 L 106.714844 556 Z M 106.714844 43.367188 " clip-rule="nonzero"/></clipPath><clipPath id="8951f1ef66"><path d="M 106.714844 195 L 144 195 L 144 404 L 106.714844 404 Z M 106.714844 195 " clip-rule="nonzero"/></clipPath></defs><g clip-path="url(#d14f130179)"><path fill="#000000" d="M 135.492188 186.851562 C 149.613281 190.265625 159.386719 202.675781 159.386719 216.945312 L 159.386719 382.785156 C 159.386719 397.210938 149.457031 409.621094 135.492188 412.878906 L 106.945312 419.707031 L 107.257812 516.976562 C 107.257812 538.539062 124.789062 555.757812 146.195312 555.757812 L 813.324219 553.742188 C 834.734375 553.585938 851.957031 536.210938 851.957031 514.804688 L 850.871094 82.757812 C 850.714844 61.347656 833.339844 43.972656 811.929688 43.972656 L 144.800781 45.988281 C 123.390625 46.144531 106.015625 63.519531 106.171875 84.925781 L 106.480469 179.867188 Z M 772.832031 75 L 773.761719 522.871094 L 185.296875 524.886719 L 184.210938 76.863281 Z M 772.832031 75 " fill-opacity="1" fill-rule="nonzero"/></g><g clip-path="url(#8951f1ef66)"><path fill="#000000" d="M 143.804688 382.753906 L 143.804688 217.019531 C 143.804688 209.851562 138.894531 203.613281 131.921875 201.9375 L 106.417969 195.800781 L 106.882812 403.832031 L 131.90625 397.839844 C 138.886719 396.167969 143.804688 389.929688 143.804688 382.753906 Z M 143.804688 382.753906 " fill-opacity="1" fill-rule="nonzero"/></g><path fill="#000000" d="M 255.792969 370.59375 L 353.714844 370.59375 C 367.578125 370.59375 378.691406 359.351562 378.691406 345.617188 L 378.691406 247.578125 C 378.691406 233.839844 367.578125 222.601562 353.714844 222.601562 L 255.792969 222.601562 C 241.929688 222.601562 230.8125 233.839844 230.8125 247.578125 L 230.8125 345.617188 C 230.8125 359.351562 241.929688 370.59375 255.792969 370.59375 Z M 250.453125 260.910156 C 250.453125 255.726562 254.695312 251.484375 259.878906 251.484375 L 349.625 251.484375 C 354.8125 251.484375 359.054688 255.726562 359.054688 260.910156 L 359.054688 336.984375 C 359.054688 340.847656 354.8125 343.015625 351.605469 340.847656 L 331.714844 326.992188 L 259.878906 326.992188 C 254.695312 326.992188 250.453125 322.75 250.453125 317.566406 Z M 250.453125 260.910156 " fill-opacity="1" fill-rule="nonzero"/><path fill="#000000" d="M 528.007812 222.601562 L 430.085938 222.601562 C 416.222656 222.601562 405.109375 233.839844 405.109375 247.578125 L 405.109375 345.617188 C 405.109375 359.351562 416.222656 370.59375 430.085938 370.59375 L 528.007812 370.59375 C 541.871094 370.59375 552.984375 359.351562 552.984375 345.617188 L 552.984375 247.578125 C 552.984375 233.839844 541.871094 222.601562 528.007812 222.601562 Z M 525.589844 342.082031 C 525.589844 346.15625 522.121094 349.625 518.046875 349.625 L 440.046875 349.625 C 435.820312 349.625 432.503906 346.15625 432.503906 342.082031 L 432.503906 251.113281 C 432.503906 246.890625 435.820312 243.570312 440.046875 243.570312 L 518.046875 243.570312 C 522.121094 243.570312 525.589844 246.890625 525.589844 251.113281 Z M 525.589844 342.082031 " fill-opacity="1" fill-rule="nonzero"/><path fill="#000000" d="M 579.398438 247.578125 L 579.398438 345.617188 C 579.398438 359.351562 590.511719 370.59375 604.378906 370.59375 L 702.300781 370.59375 C 716.164062 370.59375 727.277344 359.351562 727.277344 345.617188 L 727.277344 247.578125 C 727.277344 233.839844 716.164062 222.601562 702.300781 222.601562 L 604.378906 222.601562 C 590.515625 222.601562 579.398438 233.839844 579.398438 247.578125 Z M 699.871094 336.914062 C 700.148438 339.296875 696.085938 343.359375 693.632812 343.148438 C 686.066406 342.589844 672.683594 325.984375 666.097656 317.015625 C 667.636719 316.035156 668.96875 314.84375 670.300781 313.511719 C 671.632812 312.183594 672.824219 310.851562 673.804688 309.308594 C 682.699219 315.964844 699.308594 329.347656 699.871094 336.914062 Z M 617.683594 260.925781 C 632.203125 246.410156 655.738281 246.410156 670.257812 260.925781 C 684.773438 275.441406 684.777344 298.976562 670.257812 313.496094 C 655.742188 328.011719 632.203125 328.011719 617.683594 313.496094 C 603.164062 298.976562 603.164062 275.441406 617.683594 260.925781 Z M 617.683594 260.925781 " fill-opacity="1" fill-rule="nonzero"/><path fill="#000000" d="M 670.34375 287.207031 C 670.34375 288.070312 670.300781 288.933594 670.214844 289.792969 C 670.128906 290.652344 670.003906 291.503906 669.835938 292.351562 C 669.667969 293.199219 669.457031 294.035156 669.207031 294.863281 C 668.957031 295.6875 668.664062 296.5 668.335938 297.300781 C 668.003906 298.097656 667.636719 298.878906 667.226562 299.640625 C 666.820312 300.402344 666.378906 301.140625 665.898438 301.859375 C 665.417969 302.578125 664.902344 303.269531 664.355469 303.9375 C 663.808594 304.605469 663.226562 305.246094 662.617188 305.855469 C 662.007812 306.464844 661.367188 307.046875 660.699219 307.59375 C 660.03125 308.140625 659.339844 308.65625 658.621094 309.136719 C 657.902344 309.613281 657.164062 310.058594 656.398438 310.464844 C 655.636719 310.871094 654.859375 311.242188 654.058594 311.570312 C 653.261719 311.902344 652.449219 312.191406 651.625 312.445312 C 650.796875 312.695312 649.960938 312.90625 649.113281 313.074219 C 648.265625 313.242188 647.414062 313.367188 646.550781 313.453125 C 645.691406 313.539062 644.832031 313.578125 643.96875 313.578125 C 643.105469 313.578125 642.242188 313.539062 641.382812 313.453125 C 640.523438 313.367188 639.667969 313.242188 638.820312 313.074219 C 637.976562 312.90625 637.136719 312.695312 636.3125 312.445312 C 635.484375 312.191406 634.671875 311.902344 633.875 311.570312 C 633.078125 311.242188 632.296875 310.871094 631.535156 310.464844 C 630.773438 310.058594 630.03125 309.613281 629.3125 309.136719 C 628.597656 308.65625 627.902344 308.140625 627.234375 307.59375 C 626.566406 307.046875 625.929688 306.464844 625.316406 305.855469 C 624.707031 305.246094 624.128906 304.605469 623.578125 303.9375 C 623.03125 303.269531 622.515625 302.578125 622.039062 301.859375 C 621.558594 301.140625 621.113281 300.402344 620.707031 299.640625 C 620.300781 298.878906 619.929688 298.097656 619.601562 297.300781 C 619.269531 296.5 618.980469 295.6875 618.726562 294.863281 C 618.476562 294.035156 618.269531 293.199219 618.097656 292.351562 C 617.929688 291.503906 617.804688 290.652344 617.71875 289.792969 C 617.636719 288.933594 617.59375 288.070312 617.59375 287.207031 C 617.59375 286.34375 617.636719 285.480469 617.71875 284.621094 C 617.804688 283.761719 617.929688 282.910156 618.097656 282.0625 C 618.269531 281.214844 618.476562 280.378906 618.726562 279.550781 C 618.980469 278.726562 619.269531 277.914062 619.601562 277.113281 C 619.929688 276.316406 620.300781 275.535156 620.707031 274.773438 C 621.113281 274.011719 621.558594 273.273438 622.039062 272.554688 C 622.515625 271.835938 623.03125 271.144531 623.578125 270.476562 C 624.128906 269.808594 624.707031 269.167969 625.316406 268.558594 C 625.929688 267.949219 626.566406 267.367188 627.234375 266.820312 C 627.902344 266.273438 628.597656 265.757812 629.3125 265.277344 C 630.03125 264.800781 630.773438 264.355469 631.535156 263.949219 C 632.296875 263.542969 633.074219 263.171875 633.875 262.839844 C 634.671875 262.511719 635.484375 262.21875 636.3125 261.96875 C 637.136719 261.71875 637.976562 261.507812 638.820312 261.339844 C 639.667969 261.171875 640.523438 261.046875 641.382812 260.960938 C 642.242188 260.875 643.105469 260.835938 643.96875 260.835938 C 644.832031 260.835938 645.691406 260.875 646.550781 260.960938 C 647.414062 261.046875 648.265625 261.171875 649.113281 261.339844 C 649.960938 261.507812 650.796875 261.71875 651.625 261.96875 C 652.449219 262.21875 653.261719 262.511719 654.058594 262.839844 C 654.859375 263.171875 655.636719 263.542969 656.398438 263.949219 C 657.164062 264.355469 657.902344 264.800781 658.621094 265.277344 C 659.339844 265.757812 660.03125 266.273438 660.699219 266.820312 C 661.367188 267.367188 662.007812 267.949219 662.617188 268.558594 C 663.226562 269.167969 663.808594 269.808594 664.355469 270.476562 C 664.902344 271.144531 665.417969 271.835938 665.898438 272.554688 C 666.378906 273.273438 666.820312 274.011719 667.226562 274.773438 C 667.636719 275.535156 668.003906 276.316406 668.335938 277.113281 C 668.664062 277.914062 668.957031 278.726562 669.207031 279.550781 C 669.457031 280.378906 669.667969 281.214844 669.835938 282.0625 C 670.003906 282.910156 670.128906 283.761719 670.214844 284.621094 C 670.300781 285.480469 670.34375 286.34375 670.34375 287.207031 Z M 670.34375 287.207031 " fill-opacity="1" fill-rule="nonzero"/><path fill="#000000" d="M 466.699219 258.769531 L 510.710938 258.769531 L 510.710938 266.496094 L 466.699219 266.496094 Z M 466.699219 258.769531 " fill-opacity="1" fill-rule="nonzero"/><path fill="#000000" d="M 466.699219 281.375 L 510.710938 281.375 L 510.710938 289.097656 L 466.699219 289.097656 Z M 466.699219 281.375 " fill-opacity="1" fill-rule="nonzero"/><path fill="#000000" d="M 466.699219 303.976562 L 510.710938 303.976562 L 510.710938 311.703125 L 466.699219 311.703125 Z M 466.699219 303.976562 " fill-opacity="1" fill-rule="nonzero"/><path fill="#000000" d="M 466.699219 326.578125 L 510.710938 326.578125 L 510.710938 334.304688 L 466.699219 334.304688 Z M 466.699219 326.578125 " fill-opacity="1" fill-rule="nonzero"/><path fill="#000000" d="M 447.335938 258.769531 L 455.0625 258.769531 L 455.0625 266.496094 L 447.335938 266.496094 Z M 447.335938 258.769531 " fill-opacity="1" fill-rule="nonzero"/><path fill="#000000" d="M 447.335938 281.375 L 455.0625 281.375 L 455.0625 289.097656 L 447.335938 289.097656 Z M 447.335938 281.375 " fill-opacity="1" fill-rule="nonzero"/><path fill="#000000" d="M 447.335938 303.976562 L 455.0625 303.976562 L 455.0625 311.703125 L 447.335938 311.703125 Z M 447.335938 303.976562 " fill-opacity="1" fill-rule="nonzero"/><path fill="#000000" d="M 447.335938 326.578125 L 455.0625 326.578125 L 455.0625 334.304688 L 447.335938 334.304688 Z M 447.335938 326.578125 " fill-opacity="1" fill-rule="nonzero"/><path fill="#000000" d="M 266.296875 275.539062 L 339.121094 275.539062 L 339.121094 282.613281 L 266.296875 282.613281 Z M 266.296875 275.539062 " fill-opacity="1" fill-rule="nonzero"/><path fill="#000000" d="M 266.296875 295.863281 L 339.121094 295.863281 L 339.121094 302.9375 L 266.296875 302.9375 Z M 266.296875 295.863281 " fill-opacity="1" fill-rule="nonzero"/><path fill="#000000" d="M 378.234375 432.726562 L 378.234375 471.511719 C 378.234375 480.042969 385.214844 487.023438 393.746094 487.023438 L 564.40625 487.023438 C 572.941406 487.023438 579.921875 480.042969 579.921875 471.511719 L 579.921875 432.726562 C 579.921875 424.039062 572.941406 417.214844 564.40625 417.214844 L 393.746094 417.214844 C 385.210938 417.214844 378.234375 424.039062 378.234375 432.726562 Z M 529.195312 435.816406 L 541.28125 435.816406 C 560.015625 435.816406 557.753906 453.625 548.109375 456.5 L 556.617188 468.304688 L 549.648438 468.304688 L 541.886719 457.382812 L 534.679688 457.382812 L 534.679688 468.304688 L 529.195312 468.304688 Z M 498.800781 435.816406 L 521.621094 435.816406 L 521.621094 440.976562 L 504.285156 440.976562 L 504.285156 449.574219 L 519.855469 449.574219 L 519.855469 454.453125 L 504.285156 454.453125 L 504.285156 463.144531 L 522.179688 463.144531 L 522.179688 468.304688 L 498.800781 468.304688 Z M 467.660156 435.816406 L 492.851562 435.816406 L 492.851562 440.839844 L 482.996094 440.839844 L 482.996094 468.304688 L 477.511719 468.304688 L 477.511719 440.839844 L 467.660156 440.839844 Z M 431.871094 435.816406 L 437.355469 435.816406 L 456.226562 460.078125 L 456.226562 435.816406 L 461.710938 435.816406 L 461.710938 468.304688 L 455.761719 468.304688 L 437.355469 444.601562 L 437.355469 468.304688 L 431.871094 468.304688 Z M 401.472656 435.816406 L 424.292969 435.816406 L 424.292969 440.976562 L 406.957031 440.976562 L 406.957031 449.574219 L 422.527344 449.574219 L 422.527344 454.453125 L 406.957031 454.453125 L 406.957031 463.144531 L 424.851562 463.144531 L 424.851562 468.304688 L 401.472656 468.304688 Z M 401.472656 435.816406 " fill-opacity="1" fill-rule="nonzero"/><path fill="#000000" d="M 549.507812 446.347656 C 549.507812 441.582031 546.664062 440.792969 541.652344 440.792969 L 534.679688 440.792969 L 534.679688 452.410156 L 541.511719 452.410156 C 546.578125 452.410156 549.507812 451.371094 549.507812 446.347656 Z M 549.507812 446.347656 " fill-opacity="1" fill-rule="nonzero"/><path fill="#000000" d="M 306.28125 164.378906 L 275.585938 164.378906 L 275.585938 149.46875 L 302.292969 149.46875 L 302.292969 141.097656 L 275.585938 141.097656 L 275.585938 126.351562 L 305.320312 126.351562 L 305.320312 117.5 L 266.179688 117.5 L 266.179688 173.226562 L 306.28125 173.226562 Z M 306.28125 164.378906 " fill-opacity="1" fill-rule="nonzero"/><path fill="#000000" d="M 316.332031 145.246094 L 342.800781 145.246094 L 342.800781 153.605469 L 316.332031 153.605469 Z M 316.332031 145.246094 " fill-opacity="1" fill-rule="nonzero"/><path fill="#000000" d="M 391.109375 164.296875 L 365.675781 164.296875 L 365.675781 117.5 L 356.265625 117.5 L 356.265625 173.226562 L 391.109375 173.226562 Z M 391.109375 164.296875 " fill-opacity="1" fill-rule="nonzero"/><path fill="#000000" d="M 418.851562 173.863281 C 426.191406 173.863281 432.140625 171.5 436.714844 166.769531 L 431.605469 161.1875 C 428.84375 164.535156 424.800781 166.210938 419.488281 166.210938 C 413.128906 166.210938 406.773438 162.433594 406.335938 155.925781 L 439.582031 155.925781 L 439.582031 149.789062 C 439.582031 137.039062 429.933594 130.179688 418.8125 130.179688 C 407.667969 130.179688 397.410156 138.066406 397.410156 151.980469 C 397.410156 165.871094 407.332031 173.863281 418.851562 173.863281 Z M 419.054688 137.832031 C 425.433594 137.832031 430.652344 141.566406 430.652344 148.910156 L 406.335938 148.910156 C 406.335938 141.804688 412.71875 137.832031 419.054688 137.832031 Z M 419.054688 137.832031 " fill-opacity="1" fill-rule="nonzero"/><path fill="#000000" d="M 463.339844 147.636719 C 454.140625 147.636719 446.199219 150.878906 446.199219 160.113281 C 446.199219 164.285156 447.644531 167.621094 450.546875 170.117188 C 456.75 175.472656 468.875 175.628906 475.617188 167.566406 L 475.617188 173.226562 L 483.746094 173.226562 L 483.746094 145.878906 C 483.746094 134.957031 476.765625 130.175781 466.765625 130.175781 C 460.226562 130.175781 454.382812 132.222656 449.230469 136.3125 L 453.210938 141.898438 C 457.460938 139.023438 461.554688 137.589844 465.492188 137.589844 C 471.761719 137.589844 474.894531 140.40625 474.894531 146.042969 L 474.894531 147.636719 Z M 474.820312 157.441406 C 474.820312 160.15625 473.753906 162.304688 471.632812 163.902344 C 467.160156 167.25 460.589844 166.761719 457.519531 164.65625 C 455.925781 163.566406 455.128906 161.988281 455.128906 159.914062 C 455.128906 155.875 458.34375 153.855469 464.773438 153.855469 L 474.820312 153.855469 Z M 474.820312 157.441406 " fill-opacity="1" fill-rule="nonzero"/><path fill="#000000" d="M 505.117188 155.050781 C 505.117188 150.214844 506.234375 146.363281 508.464844 143.492188 C 510.699219 140.621094 514.019531 139.1875 518.433594 139.1875 C 518.589844 139.1875 518.75 139.1875 518.90625 139.1875 L 518.828125 130.179688 C 516.0625 130.230469 513.449219 131.109375 510.976562 132.808594 C 508.507812 134.511719 506.554688 136.6875 505.121094 139.34375 L 505.121094 130.816406 L 496.183594 130.816406 L 496.183594 173.226562 L 505.121094 173.226562 L 505.121094 155.050781 Z M 505.117188 155.050781 " fill-opacity="1" fill-rule="nonzero"/><path fill="#000000" d="M 536.769531 150.269531 C 536.769531 146.335938 537.910156 143.34375 540.195312 141.296875 C 542.476562 139.253906 545.164062 138.230469 548.246094 138.230469 C 554.726562 138.230469 557.972656 142.136719 557.972656 149.949219 L 557.972656 173.226562 L 566.898438 173.226562 L 566.898438 147.238281 C 566.898438 135.75 560.085938 130.179688 550.878906 130.179688 C 545.136719 130.179688 539.707031 133.214844 536.769531 138.546875 L 536.769531 130.816406 L 527.832031 130.816406 L 527.832031 173.226562 L 536.769531 173.226562 Z M 536.769531 150.269531 " fill-opacity="1" fill-rule="nonzero"/><path fill="#000000" d="M 579.332031 130.816406 L 588.269531 130.816406 L 588.269531 173.230469 L 579.332031 173.230469 Z M 579.332031 130.816406 " fill-opacity="1" fill-rule="nonzero"/><path fill="#000000" d="M 583.886719 124.039062 C 585.421875 124.039062 586.753906 123.480469 587.871094 122.367188 C 588.984375 121.25 589.542969 119.921875 589.542969 118.378906 C 589.542969 116.839844 588.984375 115.511719 587.871094 114.394531 C 586.753906 113.277344 585.421875 112.71875 583.886719 112.71875 C 582.34375 112.71875 581.011719 113.277344 579.894531 114.394531 C 578.777344 115.511719 578.222656 116.839844 578.222656 118.378906 C 578.222656 119.921875 578.777344 121.25 579.894531 122.367188 C 581.011719 123.480469 582.34375 124.039062 583.886719 124.039062 Z M 583.886719 124.039062 " fill-opacity="1" fill-rule="nonzero"/><path fill="#000000" d="M 610.117188 150.269531 C 610.117188 146.335938 611.257812 143.34375 613.542969 141.296875 C 615.824219 139.253906 618.511719 138.230469 621.59375 138.230469 C 628.074219 138.230469 631.320312 142.136719 631.320312 149.949219 L 631.320312 173.226562 L 640.246094 173.226562 L 640.246094 147.238281 C 640.246094 135.75 633.433594 130.179688 624.226562 130.179688 C 618.484375 130.179688 613.054688 133.214844 610.117188 138.546875 L 610.117188 130.816406 L 601.183594 130.816406 L 601.183594 173.226562 L 610.117188 173.226562 Z M 610.117188 150.269531 " fill-opacity="1" fill-rule="nonzero"/><path fill="#000000" d="M 683.382812 163.101562 C 683.382812 168.859375 683.996094 175.15625 679.675781 178.964844 C 677.207031 181.144531 673.859375 182.234375 669.632812 182.234375 C 665.40625 182.234375 661.21875 180.667969 657.074219 177.53125 L 652.847656 184.308594 C 667.898438 195.953125 691.914062 191.1875 691.914062 167.804688 L 691.914062 130.816406 L 682.988281 130.816406 L 682.988281 137.113281 C 672.714844 123.585938 650.058594 130.535156 650.058594 150.746094 C 650.058594 156.59375 651.863281 161.480469 655.476562 165.417969 C 663.285156 173.910156 677.890625 173.414062 683.382812 163.101562 Z M 662.054688 141.257812 C 664.210938 138.65625 667.089844 137.351562 670.703125 137.351562 C 674.320312 137.351562 677.269531 138.617188 679.554688 141.140625 C 681.84375 143.664062 682.988281 146.746094 682.988281 150.386719 C 682.988281 154.027344 681.855469 157.074219 679.597656 159.515625 C 677.335938 161.960938 674.390625 163.179688 670.75 163.179688 C 667.105469 163.179688 664.210938 161.917969 662.054688 159.394531 C 659.902344 156.871094 658.832031 153.867188 658.832031 150.386719 C 658.832031 146.910156 659.902344 143.863281 662.054688 141.257812 Z M 662.054688 141.257812 " fill-opacity="1" fill-rule="nonzero"/></svg>