<svg xmlns="http://www.w3.org/2000/svg" xmlns:xlink="http://www.w3.org/1999/xlink" width="1280" zoomAndPan="magnify" viewBox="0 0 960 599.999999" height="800" preserveAspectRatio="xMidYMid meet" version="1.0"><path fill="#5c3829" d="M 314.667969 303.554688 C 314.679688 303.53125 314.691406 303.507812 314.703125 303.480469 C 314.703125 303.480469 314.714844 303.480469 314.714844 303.492188 C 314.714844 303.492188 314.726562 303.480469 314.726562 303.480469 C 314.761719 303.457031 314.8125 303.457031 314.871094 303.480469 C 314.796875 303.507812 314.726562 303.53125 314.667969 303.554688 Z M 315.386719 303.300781 C 315.207031 303.363281 315.039062 303.421875 314.859375 303.480469 C 315.085938 303.578125 315.359375 303.949219 315.386719 303.300781 Z M 365.628906 271.652344 L 365.785156 271.679688 L 365.710938 271.570312 C 365.710938 271.570312 365.710938 271.558594 365.699219 271.558594 C 365.699219 271.558594 365.699219 271.570312 365.6875 271.570312 C 365.675781 271.570312 365.664062 271.558594 365.640625 271.558594 C 365.652344 271.570312 365.664062 271.582031 365.664062 271.582031 C 365.664062 271.605469 365.628906 271.652344 365.628906 271.652344 Z M 538.382812 319.550781 C 535.464844 310.109375 530.210938 302.105469 523.210938 295.238281 C 519.300781 291.398438 514.753906 288.371094 510.160156 285.355469 C 495.082031 275.484375 478.640625 269.847656 460.71875 268.21875 C 449.171875 267.167969 437.792969 267.5 426.398438 269.980469 C 417.820312 271.84375 409.613281 274.347656 401.789062 278.449219 C 397.0625 280.9375 392.5625 283.65625 388.085938 286.550781 C 377.878906 293.167969 370.140625 302.105469 365.078125 312.804688 C 358.832031 326.023438 358.59375 340.300781 361.429688 354.574219 C 364.085938 367.914062 368.691406 380.671875 373.488281 393.34375 C 379.449219 409.113281 385.273438 424.90625 389.175781 441.347656 C 391.976562 453.15625 393.484375 465.160156 391.675781 477.113281 C 390.039062 487.953125 386.746094 498.277344 379.375 507.21875 C 371.96875 516.203125 362.910156 522.222656 352.296875 526.085938 C 341.21875 530.121094 329.480469 527.691406 318.078125 528.765625 C 315.863281 528.984375 315.550781 527.976562 316.1875 525.871094 C 317.121094 522.785156 317.707031 519.566406 318.136719 516.359375 C 320.195312 501.425781 318.351562 486.648438 314.617188 472.289062 C 311.015625 458.410156 306.421875 444.722656 301.183594 431.378906 C 295.511719 416.9375 291.285156 402.015625 285.328125 387.671875 C 280.289062 375.539062 277.15625 362.640625 272.65625 350.253906 C 266.230469 332.570312 261.371094 314.476562 257.542969 296.085938 C 255.535156 286.480469 255.152344 276.703125 254.851562 266.953125 C 254.730469 263.085938 255.378906 259.28125 259.828125 257.4375 C 261.503906 256.746094 262.496094 256.097656 264.207031 257.605469 C 273.671875 265.898438 282.527344 274.824219 291.644531 283.476562 C 299.039062 290.5 305.847656 298.167969 314.714844 303.480469 C 315.359375 302.523438 314.808594 301.855469 314.164062 301.160156 C 311.398438 298.207031 308.898438 295.046875 306.113281 292.101562 C 293.308594 278.546875 279.5 266.078125 265.476562 253.527344 C 271.960938 246.910156 278.984375 240.675781 282.613281 231.796875 C 283.367188 229.953125 284.621094 231.089844 285.484375 231.523438 C 291.058594 234.285156 296.683594 236.964844 302.292969 239.632812 C 317.203125 246.730469 331.492188 254.902344 345.789062 263.109375 C 352.070312 266.710938 358.375 270.335938 365.675781 271.558594 C 363.6875 269.761719 361.882812 267.691406 359.65625 266.257812 C 343.335938 255.738281 326.261719 246.515625 308.933594 237.753906 C 301.851562 234.179688 294.398438 231.332031 287.171875 228.027344 C 286.320312 227.644531 284.503906 227.679688 285.386719 225.480469 C 287.671875 219.757812 289.074219 213.800781 289.011719 207.566406 C 288.988281 204.910156 289.910156 204.085938 292.902344 204.765625 C 311.902344 209.050781 330.472656 214.664062 348.78125 221.304688 C 353.710938 223.085938 358.699219 224.964844 364.335938 224.953125 C 363.59375 223.695312 362.660156 223.074219 361.644531 222.546875 C 352.527344 217.820312 342.941406 214.328125 333.140625 211.253906 C 319.394531 206.933594 305.609375 202.875 291.429688 200.269531 C 290.640625 200.125 289.957031 199.441406 289.214844 199.011719 C 290.582031 196.929688 288.820312 195.003906 288.871094 192.933594 C 289.050781 185.875 287.589844 179.03125 285.433594 172.328125 C 283.929688 167.625 282.46875 163.128906 286.261719 158.425781 C 289.671875 154.199219 292.304688 149.320312 295.128906 144.640625 C 302.425781 132.554688 308.539062 119.859375 313.410156 106.636719 C 316.332031 98.71875 318.460938 90.484375 320.542969 82.289062 C 321.75 77.515625 322.433594 72.5625 322.0625 67.558594 C 321.917969 65.5625 321.34375 63.851562 319.046875 63.585938 C 316.316406 63.277344 313.578125 62.929688 310.839844 62.929688 C 299.878906 62.953125 288.929688 63.457031 278.101562 65.359375 C 268.589844 67.03125 259.328125 69.582031 250.042969 73.433594 C 250.042969 68.769531 250.425781 64.160156 249.910156 59.648438 C 249.5625 56.597656 250.386719 55.460938 253.175781 54.792969 C 263.933594 52.253906 274.582031 49.265625 285.398438 47.039062 C 294.433594 45.183594 303.277344 42.503906 312.441406 41.234375 C 315.121094 40.863281 317.695312 39.8125 320.339844 39.140625 C 321.222656 38.914062 321.796875 38.351562 321.953125 37.621094 C 322.230469 36.390625 320.972656 36.628906 320.386719 36.414062 C 316.414062 34.882812 312.488281 33.039062 308.375 32.058594 C 295.128906 28.898438 281.714844 26.433594 268.550781 23 C 257.089844 20.007812 245.566406 17.375 234.054688 14.601562 C 220.355469 11.296875 206.847656 7.21875 193.109375 4.035156 C 189.484375 3.199219 186.335938 0.335938 182.363281 1.246094 C 178.714844 2.085938 175.148438 3.28125 171.511719 4.203125 C 161.34375 6.800781 151.136719 9.238281 141.011719 11.957031 C 135.007812 13.570312 128.964844 15.03125 122.980469 16.71875 C 111.492188 19.960938 99.769531 22.34375 88.136719 25.082031 C 80.539062 26.863281 72.988281 28.898438 65.332031 30.335938 C 58.390625 31.640625 51.929688 34.390625 45.167969 36.1875 C 44.667969 36.316406 43.722656 36.558594 43.902344 37.382812 C 44.019531 37.957031 44.476562 38.613281 44.976562 38.902344 C 45.742188 39.355469 46.664062 39.609375 47.550781 39.800781 C 58.222656 42.179688 68.910156 44.488281 79.570312 46.90625 C 91.082031 49.527344 102.578125 52.21875 114.066406 54.949219 C 115.070312 55.1875 116.746094 55.269531 116.316406 56.96875 C 115.15625 61.492188 116.003906 66.074219 115.777344 70.621094 C 115.667969 72.824219 115.167969 73.457031 113.050781 72.609375 C 108.238281 70.683594 103.394531 68.996094 98.25 67.953125 C 90.003906 66.277344 81.808594 64.472656 73.371094 64.078125 C 65.367188 63.707031 57.445312 62.582031 49.320312 63.335938 C 45.335938 63.707031 44.425781 65.308594 43.960938 68.410156 C 43.375 72.308594 44.414062 76.066406 45.074219 79.835938 C 47.023438 91.132812 50.660156 101.949219 54.933594 112.539062 C 58.617188 121.703125 62.984375 130.558594 67.832031 139.207031 C 71.984375 146.601562 76.710938 153.589844 81.136719 160.792969 C 82.371094 162.792969 83.089844 164.574219 82.15625 167.253906 C 78.863281 176.792969 76.613281 186.617188 76.746094 196.808594 C 76.78125 199.238281 75.96875 200.089844 73.417969 200.507812 C 63.070312 202.230469 52.972656 205.148438 42.921875 208.082031 C 33.828125 210.738281 24.910156 214.027344 16.023438 217.332031 C 11.007812 219.183594 6.019531 221.253906 1.339844 224.90625 C 9.117188 225 15.496094 221.664062 22.101562 219.472656 C 38.828125 213.933594 55.519531 208.417969 72.820312 204.875 C 76.269531 204.167969 76.601562 205.316406 76.792969 207.867188 C 77.238281 213.488281 78.144531 219.03125 80.335938 224.257812 C 81.304688 226.578125 80.539062 227.347656 78.386719 228.277344 C 69.914062 231.917969 61.394531 235.507812 53.210938 239.730469 C 44.929688 244 36.589844 248.152344 28.5625 252.941406 C 18.832031 258.730469 8.675781 263.78125 0.167969 271.4375 C 6.390625 270.839844 11.667969 267.679688 16.882812 264.75 C 37.332031 253.261719 57.851562 241.933594 79.101562 231.953125 C 82.320312 230.445312 83.519531 231.484375 84.621094 234.023438 C 87.71875 241.179688 93.113281 246.585938 98.535156 251.886719 C 100.175781 253.492188 100.007812 253.886719 98.476562 255.25 C 85.910156 266.4375 73.585938 277.875 61.789062 289.878906 C 58.03125 293.695312 53.867188 297.210938 50.949219 303.253906 C 56.273438 300.574219 59.945312 297.546875 63.296875 294.171875 C 75.65625 281.714844 88.519531 269.773438 101.40625 257.871094 C 102.171875 257.164062 102.820312 255.332031 104.542969 256.457031 C 108.203125 258.863281 111.230469 261.316406 110.957031 266.617188 C 110.464844 276.105469 110.175781 285.628906 108.359375 294.925781 C 104.207031 316.128906 98.007812 336.804688 90.804688 357.171875 C 85.792969 371.351562 80.683594 385.503906 75.644531 399.671875 C 70.34375 414.582031 64.925781 429.441406 59.816406 444.421875 C 51.988281 467.394531 44.128906 490.40625 47.671875 515.355469 C 48.84375 523.621094 50.566406 531.734375 53.425781 539.632812 C 56.691406 548.617188 62.675781 555.90625 68.035156 563.527344 C 71.898438 569.03125 77.632812 572.894531 84.621094 573.648438 C 93.210938 574.570312 101.8125 575.753906 110.5 575.277344 C 112.703125 575.15625 113.875 576.414062 113.984375 578.195312 C 114.164062 581.257812 115.417969 584.058594 115.683594 587.0625 C 116.484375 596.046875 122.96875 598.96875 130.566406 599.265625 C 138.285156 599.566406 146.039062 599.015625 153.769531 598.894531 C 157.355469 598.847656 161.066406 598.488281 163.566406 595.871094 C 165.902344 593.417969 166.835938 589.515625 166.691406 586.488281 C 166.5 582.515625 167.527344 578.757812 167.371094 574.894531 C 167 574.019531 167.15625 573.554688 168.222656 573.828125 C 178.40625 575.347656 188.46875 574.296875 198.445312 572.488281 C 199.511719 578.628906 199.019531 584.898438 200.375 591.214844 C 201.402344 595.988281 203.425781 597.582031 207.003906 598.105469 C 217.554688 599.675781 228.230469 599.472656 238.816406 598.777344 C 243.472656 598.464844 248.066406 595.976562 249.550781 590.6875 C 250.386719 587.722656 250.710938 584.597656 251.105469 581.523438 C 251.65625 577.132812 253.238281 575.242188 257.113281 575.289062 C 264.472656 575.371094 271.746094 574.4375 279.058594 573.816406 C 287.898438 573.0625 294.265625 568.539062 299.148438 561.828125 C 300.679688 559.722656 301.910156 559.242188 304.03125 559.445312 C 309.355469 559.9375 314.65625 560.378906 320.039062 560.390625 C 328.320312 560.402344 336.382812 559.207031 344.53125 557.9375 C 358.246094 555.796875 371.289062 551.644531 383.613281 545.507812 C 396.117188 539.285156 405.953125 529.640625 415.25 519.339844 C 419.628906 514.480469 422.320312 508.867188 423.960938 502.875 C 428.972656 484.496094 426.6875 466.257812 421.925781 448.167969 C 418.203125 434.023438 412.566406 420.515625 407.816406 406.71875 C 403.042969 392.851562 397.839844 379.152344 395.566406 364.601562 C 394.453125 357.433594 393.984375 350.253906 394.5 342.894531 C 394.882812 337.367188 397.324219 332.738281 398.785156 327.722656 C 402.097656 316.367188 408.378906 306.941406 419.578125 301.878906 C 426.410156 298.792969 433.792969 297.617188 441.238281 297.019531 C 452.6875 296.097656 463.996094 297.558594 475.039062 300.300781 C 484.765625 302.714844 493.621094 306.976562 499.640625 315.757812 C 504.460938 322.792969 509.464844 329.636719 516.800781 334.578125 C 522.960938 338.730469 527.246094 339.246094 533.945312 334.757812 C 537.988281 332.007812 540.035156 324.875 538.382812 319.550781 Z M 0 271.535156 C 0.0117188 271.535156 0.203125 271.617188 0.203125 271.617188 L 0.0976562 271.460938 C 0.121094 271.4375 0.144531 271.425781 0.167969 271.402344 C 0.132812 271.402344 0.0976562 271.414062 0.0703125 271.414062 C 0.0585938 271.414062 0 271.535156 0 271.535156 Z M 0 271.535156 " fill-opacity="1" fill-rule="nonzero"/><path fill="#1a161a" d="M 162.980469 34.785156 C 166.296875 33.960938 169.800781 33.519531 172.960938 32.011719 C 179.386719 29.378906 185.835938 29.222656 192.261719 31.914062 C 193.792969 32.5625 194.785156 33.925781 194.414062 35.707031 C 194.019531 37.585938 192.546875 38.914062 190.800781 38.867188 C 184.304688 38.722656 177.640625 40.457031 171.367188 37.394531 C 162.945312 38.304688 155.347656 41.378906 148.742188 46.632812 C 146.230469 48.628906 144.914062 51.515625 144.9375 54.851562 C 145.511719 55.882812 146.566406 56.109375 147.570312 56.394531 C 157.371094 59.230469 167.121094 62.234375 176.992188 64.785156 C 179.421875 65.417969 181.933594 67.007812 184.554688 66.125 C 196.699219 62.066406 209.132812 59.074219 221.457031 55.640625 C 234.808594 51.921875 248.234375 48.402344 261.648438 44.886719 C 268.46875 43.089844 275.300781 41.308594 282.109375 39.511719 C 287.375 38.125 292.949219 37.238281 298.800781 36.414062 C 297.054688 35.347656 295.5 35.300781 293.941406 35.050781 C 288.019531 34.066406 282.0625 33.136719 276.222656 31.734375 C 261.578125 28.230469 247.003906 24.449219 232.394531 20.8125 C 218.945312 17.472656 205.519531 14.0625 192.226562 10.136719 C 187.628906 8.785156 182.878906 7.171875 177.890625 8.761719 C 171.046875 10.925781 164.285156 13.523438 157.296875 15.019531 C 148.335938 16.945312 139.554688 19.46875 130.636719 21.539062 C 115.71875 25.011719 100.890625 28.863281 85.996094 32.394531 C 80.109375 33.792969 74.113281 34.761719 68.167969 35.921875 C 72.808594 37.515625 77.378906 38.601562 81.988281 39.535156 C 88.414062 40.839844 94.621094 42.996094 100.988281 44.417969 C 107.496094 45.867188 113.921875 47.589844 120.382812 49.242188 C 126.582031 50.820312 132.625 53.164062 139.121094 53.332031 C 144.21875 43.519531 152.128906 37.464844 162.980469 34.785156 Z M 145.164062 69.113281 C 149.351562 73.027344 149.363281 75.15625 145.332031 79.332031 C 143.921875 80.792969 144.136719 81.691406 145.273438 82.875 C 147.59375 85.328125 150.359375 86.980469 153.78125 87.300781 C 155.011719 87.421875 156.28125 87.671875 156.640625 88.976562 C 157.082031 90.605469 155.632812 91.238281 154.558594 91.933594 C 152.894531 92.996094 151.136719 93.082031 149.292969 92.339844 C 147.714844 91.707031 146.121094 91.121094 144.46875 90.496094 C 143.285156 93.082031 143.5 95.679688 143.632812 98.273438 C 143.742188 100.367188 143.835938 102.988281 140.988281 103.011719 C 138.535156 103.035156 138.738281 100.621094 138.726562 98.789062 C 138.714844 96.289062 138.726562 93.789062 138.726562 90.785156 C 136.777344 92.421875 135.222656 93.894531 133.199219 94.683594 C 131.679688 95.285156 130.242188 95.222656 129.347656 93.847656 C 128.449219 92.472656 129.441406 91.347656 130.460938 90.449219 C 131.140625 89.851562 131.941406 89.382812 132.671875 88.820312 C 136.464844 85.878906 137.148438 82.15625 134.527344 78.234375 C 132.746094 75.5625 132.109375 72.859375 134.730469 70.480469 C 137.578125 67.882812 136.957031 64.328125 137.734375 61.15625 C 132.851562 60.019531 127.957031 58.882812 121.75 57.449219 C 124.046875 59.925781 122.800781 61.746094 123.003906 63.46875 C 124.128906 72.714844 122.503906 81.929688 122.632812 91.167969 C 122.667969 93.789062 122.933594 96.753906 122.011719 99.160156 C 121.078125 101.601562 122.011719 102.488281 123.757812 102.976562 C 128.160156 104.210938 132.601562 105.464844 137.101562 106.183594 C 146.015625 107.597656 154.964844 108.804688 163.9375 109.808594 C 171.34375 110.636719 178.8125 111.496094 186.242188 111.472656 C 192.488281 111.449219 198.710938 110.0625 204.957031 109.4375 C 216.824219 108.253906 228.503906 105.898438 240.230469 103.804688 C 241.832031 103.515625 244.429688 102.308594 244 101.039062 C 243.078125 98.335938 244.128906 95.847656 243.785156 93.285156 C 242.324219 82.574219 242.707031 71.769531 242.671875 61.027344 C 242.660156 57.664062 241.953125 57.878906 239.535156 58.464844 C 227.449219 61.433594 215.28125 64.125 203.246094 67.273438 C 189.640625 70.824219 176.226562 71.078125 162.5625 67.320312 C 156.4375 65.632812 150.214844 63.777344 143.742188 63.492188 C 143.179688 65.632812 143.296875 67.355469 145.164062 69.113281 Z M 145.164062 69.113281 " fill-opacity="1" fill-rule="nonzero"/><path fill="#fdfdfd" d="M 292.816406 491.601562 C 298 488.765625 303.492188 486.375 309.320312 484.960938 C 309.355469 484.433594 309.511719 483.886719 309.390625 483.394531 C 307.175781 474.46875 304.554688 465.683594 301.792969 456.902344 C 297.53125 443.371094 292.398438 430.171875 287.757812 416.78125 C 283.507812 404.554688 278.757812 392.503906 274.691406 380.214844 C 269.292969 363.957031 263.324219 347.886719 258.5625 331.421875 C 253.824219 315.039062 249.394531 298.636719 248.472656 281.464844 C 248.175781 275.867188 248.785156 270.277344 248.546875 264.523438 C 241.691406 267.082031 235.753906 272.074219 227.476562 269.34375 C 235.839844 260.71875 247.816406 258.648438 256.480469 251.132812 C 250.4375 245.796875 243.101562 241.777344 237.585938 235.53125 C 238.902344 234.742188 239.738281 235.636719 240.648438 236.019531 C 247.085938 238.761719 252.253906 243.453125 257.878906 247.425781 C 259.457031 248.535156 260.367188 248.320312 261.527344 247.328125 C 267.320312 242.351562 272.417969 236.859375 275.683594 229.800781 C 276.4375 228.160156 276.378906 227.882812 274.628906 227.117188 C 266.6875 223.601562 258.488281 220.777344 250.328125 217.832031 C 249.023438 217.355469 247.757812 217.042969 247.0625 215.441406 C 247.863281 215.441406 248.414062 215.332031 248.90625 215.453125 C 258.117188 217.714844 267.296875 220.105469 276.199219 223.410156 C 277.777344 223.996094 278.089844 224.117188 278.878906 222.332031 C 280.121094 219.507812 280.300781 216.566406 280.960938 213.679688 C 266.734375 215.488281 252.636719 215.082031 238.890625 210.703125 C 223.261719 205.738281 210.589844 196.523438 200.167969 183.851562 C 191.519531 173.347656 186.0625 161.285156 181.613281 148.660156 C 178.238281 139.089844 177.230469 129.027344 175.953125 119.035156 C 165.265625 118.316406 154.75 116.355469 144.136719 115.039062 C 135.375 113.949219 126.988281 111.914062 119.488281 107.117188 C 118.0625 106.207031 117.691406 106.984375 117.082031 107.738281 C 111.996094 114.035156 108.394531 121.25 104.554688 128.308594 C 101.382812 134.125 99.324219 140.574219 94.898438 145.695312 C 94.046875 146.675781 93.007812 148.160156 91.75 147.679688 C 90.375 147.164062 90.039062 145.261719 90.496094 143.957031 C 91.476562 141.085938 89.730469 139.519531 87.933594 138.109375 C 86.066406 136.636719 84.535156 134.902344 82.992188 133.152344 C 75.65625 124.875 70.597656 115.398438 67.222656 104.832031 C 64.960938 97.773438 63.535156 90.53125 61.492188 83.460938 C 60.664062 80.589844 61.382812 80.148438 63.679688 80.230469 C 75.632812 80.660156 87.550781 81.332031 99.039062 85.21875 C 104.300781 87.003906 109.425781 89.144531 114.640625 91.464844 C 115.574219 87.816406 115.15625 84.394531 115.382812 81.019531 C 115.574219 78.136719 114.210938 77.632812 112.285156 77.109375 C 107.292969 75.71875 102.234375 74.667969 97.148438 73.625 C 82.8125 70.695312 68.371094 69.785156 53.808594 69.820312 C 51.558594 69.832031 50.6875 69.988281 51.1875 72.8125 C 52.765625 81.617188 55.015625 90.1875 57.671875 98.753906 C 60.148438 106.757812 63.34375 114.367188 66.71875 121.953125 C 71.0625 131.730469 76.6875 140.824219 82.128906 149.988281 C 84.8125 154.5 85.480469 159.980469 89.332031 163.90625 C 90.421875 165.019531 89.585938 166.898438 89.128906 168.441406 C 86.738281 176.671875 84.488281 184.953125 84.046875 193.578125 C 83.78125 198.6875 84.019531 199.035156 89.058594 197.972656 C 98.296875 196.007812 107.640625 195.671875 117.023438 195.710938 C 118.636719 195.710938 120.480469 195.21875 121.785156 196.726562 C 121.066406 198.367188 119.640625 197.910156 118.386719 198.066406 C 107.738281 199.382812 97.085938 200.722656 86.449219 202.085938 C 84.621094 202.324219 84.007812 203.257812 83.949219 205.246094 C 83.746094 211.121094 85.660156 216.515625 87.132812 222.046875 C 87.660156 224.019531 88.066406 224.101562 89.96875 223.457031 C 97.339844 220.921875 104.78125 218.503906 112.296875 216.457031 C 114.234375 215.929688 116.519531 215.082031 119.222656 215.738281 C 117.609375 217.320312 116.054688 217.617188 114.628906 218.144531 C 106.984375 220.96875 99.335938 223.757812 91.738281 226.699219 C 90.878906 227.035156 88.773438 226.988281 89.871094 229.210938 C 93.511719 236.605469 98.476562 242.914062 104.914062 248.070312 C 106.167969 249.074219 106.898438 248.40625 107.953125 247.617188 C 112.402344 244.277344 116.867188 240.960938 121.507812 237.910156 C 123.460938 236.632812 125.613281 235.207031 129.082031 235.113281 C 123.078125 241.105469 116.722656 245.066406 110.957031 249.722656 C 109.136719 251.179688 109.054688 251.410156 111.0625 252.722656 C 117.164062 256.734375 123.867188 259.558594 130.253906 263.003906 C 133.320312 264.652344 136.40625 266.402344 138.285156 269.703125 C 136.730469 270.050781 135.339844 270.363281 133.953125 270.671875 C 136.882812 275.160156 139.074219 279.921875 139.589844 285.367188 C 140.355469 293.453125 139.230469 301.339844 136.921875 309.035156 C 133.605469 320.089844 127.980469 329.914062 120.503906 338.730469 C 114.878906 345.371094 108.371094 351.070312 101.835938 356.738281 C 101.203125 357.289062 100.292969 358.296875 99.0625 357.746094 C 99.5625 359.121094 98.632812 359.277344 97.660156 359.382812 C 94.46875 368.753906 91.296875 378.121094 88.078125 387.46875 C 85.207031 395.84375 82.417969 404.242188 79.332031 412.535156 C 76.949219 418.925781 74.1875 425.265625 72.140625 431.691406 C 68.742188 442.386719 64.746094 452.894531 61.429688 463.628906 C 57.816406 475.328125 54.875 487.117188 54.191406 499.222656 C 53.425781 512.710938 55.339844 526.015625 60.546875 538.734375 C 64.097656 547.421875 67.941406 555.652344 75.335938 562.03125 C 78.230469 564.53125 80.898438 565.945312 83.902344 566.148438 C 83.902344 562.234375 83.9375 558.308594 83.890625 554.386719 C 83.867188 552.804688 84.546875 551.859375 86.066406 551.597656 C 87.648438 551.332031 88.605469 552.339844 89.09375 553.605469 C 89.894531 555.664062 90.6875 557.769531 91.117188 559.925781 C 91.570312 562.257812 90.734375 565.574219 92.039062 566.828125 C 93.484375 568.230469 96.703125 567.796875 99.15625 568.15625 C 99.265625 568.167969 99.386719 568.074219 99.660156 567.976562 C 99.253906 563.324219 98.847656 558.632812 98.464844 553.929688 C 98.402344 553.175781 98.234375 552.253906 99.015625 551.777344 C 100.066406 551.128906 100.628906 552.125 101.359375 552.625 C 105.4375 555.390625 104.925781 559.890625 105.355469 563.851562 C 105.871094 568.660156 106.253906 569.234375 111.160156 568.457031 C 110.070312 563.394531 108.933594 558.359375 107.929688 553.285156 C 106.230469 544.71875 105.164062 543.785156 96.476562 543.652344 C 96.082031 543.652344 95.6875 543.640625 95.292969 543.652344 C 89.8125 543.796875 84.453125 544.453125 79.488281 547.027344 C 77.917969 547.839844 75.910156 548.402344 74.890625 546.773438 C 73.921875 545.207031 74.53125 543.339844 76.113281 541.894531 C 77.726562 540.421875 79.582031 539.535156 81.605469 538.996094 C 89.753906 536.820312 97.804688 536.867188 105.785156 540.804688 C 104.492188 530.226562 102.449219 520.234375 101.289062 510.101562 C 99.503906 494.535156 97.9375 478.992188 97.613281 463.328125 C 97.578125 461.84375 96.703125 461.007812 96.070312 459.894531 C 94.035156 456.328125 89.800781 455.25 87.550781 452.03125 C 87.023438 451.289062 85.804688 450.332031 86.675781 449.269531 C 87.382812 448.40625 88.6875 448.765625 89.679688 448.96875 C 92.660156 449.554688 94.660156 452.019531 97.710938 453.730469 C 96.957031 443.226562 97.902344 433.308594 98.535156 423.421875 C 99.421875 409.519531 101.179688 395.652344 103.355469 381.855469 C 104.792969 372.75 106.300781 363.644531 109.902344 355.066406 C 110.429688 353.808594 110.632812 352.230469 112.535156 352.527344 C 113.585938 359.011719 112.988281 365.449219 112.042969 371.625 C 109.972656 385.121094 108.226562 398.632812 106.828125 412.210938 C 105.117188 428.808594 104.410156 445.414062 104.699219 462.070312 C 104.878906 472.136719 105.785156 482.171875 106.359375 492.226562 C 110.261719 486.351562 116.246094 484.101562 122.765625 482.761719 C 130.316406 481.203125 138.058594 480.367188 145.59375 481.421875 C 151.21875 482.210938 157.058594 483.550781 162.109375 486.71875 C 162.453125 474.085938 162.8125 461.449219 163.148438 448.8125 C 163.195312 446.984375 163.101562 445.152344 164.046875 443.476562 C 164.824219 442.089844 165.746094 440.320312 167.3125 440.449219 C 169.023438 440.59375 169.261719 442.507812 169.539062 444.125 C 171.453125 455.382812 169.921875 466.691406 169.921875 477.972656 C 169.921875 489.925781 169.109375 501.894531 168.699219 513.847656 C 168.402344 522.929688 168.210938 532.023438 167.933594 541.105469 C 167.707031 548.820312 167.421875 556.539062 167.15625 564.246094 C 167.0625 566.972656 167.730469 568.5625 171.09375 568.359375 C 179.265625 567.847656 187.449219 567.546875 195.636719 567.464844 C 198.304688 567.441406 198.839844 566.710938 198.710938 564.148438 C 198.074219 551.730469 197.523438 539.296875 197.214844 526.863281 C 196.964844 517.066406 197.574219 507.21875 196.9375 497.453125 C 196.019531 483.335938 196.066406 469.191406 195.429688 455.058594 C 195.238281 450.945312 195.597656 446.730469 196.773438 442.710938 C 197.035156 441.8125 197.105469 440.246094 198.351562 440.246094 C 199.667969 440.246094 200.898438 441.289062 201.246094 442.554688 C 201.855469 444.804688 202.789062 446.9375 202.753906 449.425781 C 202.671875 456.855469 202.800781 464.285156 203.015625 471.714844 C 203.339844 483.347656 203.84375 494.964844 204.191406 506.582031 C 204.742188 525.738281 205.242188 544.882812 205.710938 564.042969 C 205.757812 566.195312 206.390625 566.113281 208.007812 565.191406 C 214.421875 561.503906 221.421875 559.960938 228.730469 560.476562 C 232.847656 560.761719 237.117188 561.433594 240.207031 564.675781 C 241.75 566.289062 242.585938 567.75 239.070312 568.457031 C 236.199219 569.03125 233.601562 568.242188 230.910156 568.050781 C 223.167969 567.511719 215.617188 567.824219 208.460938 571.328125 C 206.773438 572.152344 205.804688 573.148438 205.710938 575.144531 C 205.507812 579.8125 207.179688 584.371094 206.332031 589.109375 C 206.042969 590.675781 207.910156 590.925781 209.179688 591.058594 C 210.867188 591.238281 210.589844 589.921875 210.605469 588.917969 C 210.628906 585.496094 210.507812 582.0625 210.652344 578.640625 C 210.746094 576.210938 212.363281 573.925781 214.457031 573.890625 C 216.742188 573.839844 216.539062 576.738281 216.886719 578.589844 C 217.003906 579.226562 216.910156 579.90625 216.910156 580.566406 C 216.921875 583.582031 217.015625 586.597656 216.910156 589.613281 C 216.847656 591.359375 217.507812 592.050781 219.183594 591.910156 C 220.355469 591.800781 221.601562 591.382812 222.699219 591.632812 C 224.832031 592.125 225.011719 591.429688 224.984375 589.46875 C 224.9375 585.878906 225.320312 582.265625 225.644531 578.675781 C 225.847656 576.414062 227.367188 574.222656 229.246094 574.140625 C 231.433594 574.042969 231.878906 576.628906 231.902344 578.640625 C 231.949219 582.839844 231.914062 587.039062 231.914062 591.550781 C 234.007812 591.132812 235.875 590.773438 237.742188 590.378906 C 241.089844 589.683594 243.496094 588.402344 244.070312 584.347656 C 244.453125 581.570312 244.96875 578.722656 245.636719 575.996094 C 248.066406 566.136719 249.851562 556.15625 251.703125 546.175781 C 253.117188 538.589844 254.097656 530.933594 255.605469 523.371094 C 256.863281 517.054688 257.605469 510.617188 258.382812 504.296875 C 259.351562 496.402344 260.308594 488.347656 260.261719 480.34375 C 260.234375 475.101562 262.019531 469.863281 260.390625 464.632812 C 249.621094 465.578125 240.804688 460.660156 233.683594 453.683594 C 224.925781 445.105469 219.671875 434.144531 216.863281 422.046875 C 214.132812 410.285156 213.199219 398.429688 216.324219 386.785156 C 218.394531 379.054688 222.125 371.792969 228.039062 365.941406 C 231.914062 362.101562 235.742188 358.367188 240.851562 356.023438 C 244.65625 354.273438 248.332031 353.355469 252.386719 354.609375 C 252.660156 353.664062 252.304688 352.207031 253.703125 352.085938 C 254.625 352 255.1875 352.960938 255.511719 353.90625 C 256.011719 355.363281 256.695312 356.765625 257.195312 358.222656 C 260.378906 367.367188 261.601562 376.890625 263.082031 386.402344 C 265.8125 403.800781 267.453125 421.292969 267.953125 438.882812 C 268.097656 443.753906 267.976562 448.632812 267.976562 453.515625 C 268.335938 453.5625 268.695312 453.625 269.054688 453.671875 C 270.742188 450.476562 273.949219 449.902344 276.890625 448.898438 C 277.632812 448.648438 278.53125 448.777344 279.070312 449.460938 C 279.738281 450.308594 278.996094 450.992188 278.496094 451.496094 C 277.214844 452.75 275.996094 454.042969 274.511719 455.15625 C 271.832031 457.140625 269.066406 459.511719 268.398438 462.933594 C 267.726562 466.367188 267.785156 469.96875 267.75 473.5 C 267.617188 485.621094 266.109375 497.609375 264.722656 509.621094 C 264.507812 511.511719 263.277344 513.355469 264.292969 515.34375 C 272.835938 506.234375 281.820312 497.632812 292.816406 491.601562 Z M 173.570312 199.667969 C 170.710938 198.078125 170.507812 197.191406 173.296875 195.433594 C 177.652344 192.695312 182.570312 193.652344 187.28125 193.808594 C 188.980469 193.855469 191.003906 193.640625 192.546875 194.957031 C 193.433594 195.722656 194.605469 196.414062 194.535156 197.707031 C 194.460938 199.144531 193.0625 199.285156 191.996094 199.765625 C 189.925781 200.699219 187.210938 200.339844 185.871094 202.757812 C 186.660156 206.957031 187.222656 211.15625 189.773438 214.867188 C 194.054688 221.125 198.816406 222.835938 206.058594 220.273438 C 207.398438 219.796875 208.832031 219.390625 209.957031 218.585938 C 211.691406 217.332031 212.328125 218.851562 213.152344 219.640625 C 214.324219 220.777344 213.117188 221.566406 212.433594 222.226562 C 207.421875 227.058594 195.359375 228.9375 189.363281 222.367188 C 187.257812 220.058594 184.613281 218.3125 182.855469 215.75 C 177.734375 221.625 172.925781 227.417969 164.285156 226.496094 C 160.359375 226.078125 156.542969 225.191406 153.550781 222.332031 C 152.761719 221.578125 151.566406 220.730469 152.847656 219.390625 C 153.71875 218.480469 154.449219 218.074219 155.886719 218.839844 C 158.253906 220.117188 160.78125 221.148438 163.640625 221.160156 C 172.53125 221.21875 178.679688 215.320312 179.015625 206.273438 C 179.0625 205.113281 179.339844 203.964844 179.503906 202.816406 C 178.453125 200.015625 175.519531 200.746094 173.570312 199.667969 Z M 148.277344 186.042969 C 147.304688 188.480469 145.175781 190.21875 142.183594 190.109375 C 138.882812 189.988281 136.335938 188.410156 134.898438 185.527344 C 131.691406 179.054688 133.640625 172.890625 136.777344 167.074219 C 137.828125 165.113281 140.113281 164.179688 142.554688 164.527344 C 146.167969 165.042969 148.121094 167.625 149.699219 170.535156 C 150.667969 172.304688 150.5625 174.339844 150.691406 176.613281 C 150.789062 179.757812 149.496094 182.953125 148.277344 186.042969 Z M 125.421875 154.488281 C 127.839844 156.019531 129.296875 154.929688 131.105469 153.183594 C 137.304688 147.214844 150.105469 149.1875 154.472656 156.558594 C 155.214844 157.804688 155.644531 159.144531 154.796875 160.207031 C 153.625 161.679688 152.402344 160.242188 151.386719 159.644531 C 149.710938 158.664062 148.203125 157.433594 146.300781 156.84375 C 141.800781 155.445312 137.84375 155.515625 134.15625 159.238281 C 129.539062 163.90625 122.382812 162.542969 120.421875 157.109375 C 119.5 154.558594 120.457031 153.78125 123.113281 153.757812 C 123.699219 153.925781 124.679688 154.023438 125.421875 154.488281 Z M 167.371094 273.988281 C 165.839844 273.414062 164.90625 272.777344 165.375 270.875 C 165.890625 268.722656 167.277344 269.175781 168.710938 269.441406 C 178.152344 271.140625 187.617188 271.03125 197.070312 269.570312 C 198.601562 269.332031 199.824219 268.9375 200.359375 271.03125 C 200.910156 273.160156 199.703125 273.976562 198.125 274.453125 C 193.230469 275.949219 188.238281 276.882812 183.261719 276.1875 C 177.6875 276.644531 172.457031 275.890625 167.371094 273.988281 Z M 452.59375 273.9375 C 443.4375 273.6875 434.511719 274.585938 425.5625 277.027344 C 411.265625 280.925781 398.042969 286.539062 386.710938 296.253906 C 373.621094 307.503906 366.847656 321.730469 366.992188 338.972656 C 367.136719 356.429688 373.847656 372.390625 379.554688 388.449219 C 383.46875 399.445312 387.835938 410.332031 391.328125 421.449219 C 396.105469 436.644531 399.8125 452.1875 399.285156 468.355469 C 399.105469 473.714844 399.25 479.195312 397.804688 484.351562 C 396.066406 490.511719 393.507812 496.449219 391.304688 502.492188 C 397.324219 498.9375 403.320312 495.359375 409.363281 491.855469 C 412.617188 489.964844 415.726562 487.773438 419.425781 486.734375 C 421.171875 484.792969 419.484375 482.761719 419.53125 480.773438 C 419.902344 467.15625 416.566406 454.140625 412.402344 441.371094 C 407.757812 427.132812 402.875 412.953125 397.613281 398.929688 C 391.460938 382.597656 387.621094 365.871094 387.273438 348.398438 C 387.117188 340.457031 387.644531 332.582031 390.71875 325.101562 C 393.578125 318.152344 397.597656 312.085938 402.960938 306.722656 C 407.089844 302.597656 411.585938 299.355469 416.78125 296.734375 C 422.378906 293.910156 428.433594 292.878906 434.34375 291.230469 C 438.941406 283.90625 445.75 278.90625 452.59375 273.9375 Z M 315.972656 535.71875 C 313.925781 535.671875 312.742188 536.078125 312.523438 538.363281 C 312.417969 539.488281 311.699219 540.542969 311.339844 541.652344 C 309.894531 546.035156 307.058594 549.671875 304.554688 553.761719 C 316.507812 554.253906 327.914062 553.8125 339.257812 552.136719 C 341.003906 548.964844 343.253906 546.128906 345.273438 543.160156 C 347.464844 539.953125 350.945312 537.824219 352.40625 534.105469 C 340.367188 537.335938 328.140625 536.007812 315.972656 535.71875 Z M 315.972656 535.71875 " fill-opacity="1" fill-rule="nonzero"/><path fill="#f58611" d="M 281.820312 204.097656 C 281.90625 202.457031 280.480469 202.242188 279.382812 202.097656 C 268.753906 200.699219 258.117188 199.371094 247.480469 198.03125 C 246.273438 197.875 244.347656 198.402344 244.40625 196.65625 C 244.453125 195.339844 246.308594 195.671875 247.445312 195.636719 C 257.808594 195.3125 268.097656 196.140625 278.304688 197.921875 C 280.949219 198.390625 282.121094 197.765625 281.90625 194.789062 C 281.296875 186.160156 279.859375 177.726562 276.761719 169.625 C 276.066406 167.792969 275.648438 165.675781 276.519531 164.277344 C 281.296875 156.546875 284.550781 148.039062 289.277344 140.25 C 297.855469 126.128906 304.640625 111.136719 309.472656 95.308594 C 311.710938 87.960938 313.363281 80.480469 314.738281 72.90625 C 315.242188 70.097656 314.464844 69.761719 312.152344 69.820312 C 304.796875 70.011719 297.4375 70 290.066406 70.597656 C 277.15625 71.640625 264.542969 74.058594 252.050781 77.359375 C 250.578125 77.753906 249.648438 78.28125 250.6875 80.050781 C 251.035156 80.636719 251.070312 81.75 250.734375 82.335938 C 249.25 84.980469 251.394531 87.46875 250.914062 90.054688 C 250.722656 91.09375 251.539062 91.464844 252.421875 91.023438 C 262.496094 85.9375 273.136719 82.828125 284.324219 81.273438 C 290.53125 80.410156 296.753906 80.421875 302.976562 80.207031 C 304.425781 80.160156 305.835938 80.566406 304.9375 82.503906 C 303 86.65625 302.59375 91.203125 301.566406 95.570312 C 297.734375 111.820312 290.617188 126.191406 278.339844 137.738281 C 276.328125 139.628906 273.503906 140.917969 275.359375 144.546875 C 275.753906 145.3125 275.816406 146.78125 274.714844 147.40625 C 273.46875 148.109375 272.511719 147.191406 271.664062 146.386719 C 269.519531 144.378906 268.097656 141.851562 266.804688 139.28125 C 262.269531 130.1875 257.84375 121.046875 252.292969 112.5 C 248.496094 106.664062 248.472656 106.6875 242.417969 109.652344 C 241.378906 110.167969 240.289062 110.609375 239.1875 110.992188 C 231.53125 113.625 223.644531 115.335938 215.605469 116.089844 C 202.40625 117.324219 189.363281 120.699219 175.953125 119.035156 C 177.21875 129.027344 178.238281 139.101562 181.609375 148.660156 C 186.0625 161.285156 191.519531 173.347656 200.167969 183.851562 C 210.589844 196.511719 223.261719 205.722656 238.890625 210.703125 C 252.636719 215.070312 266.734375 215.488281 280.960938 213.679688 C 282.40625 210.59375 281.640625 207.304688 281.820312 204.097656 Z M 229.269531 187.550781 C 226.097656 191.617188 219.960938 190.816406 217.734375 186.003906 C 215.761719 181.734375 214.765625 177.152344 215.378906 172.402344 C 215.84375 168.75 220.570312 164.085938 223.644531 164.035156 C 226.925781 163.988281 230.179688 167.398438 231.257812 171.742188 C 231.792969 173.882812 232.90625 175.882812 232.691406 178.070312 C 232.882812 181.78125 231.363281 184.855469 229.269531 187.550781 Z M 232.308594 159.847656 C 226.289062 154.871094 223.347656 154.570312 216.550781 158.378906 C 215.640625 158.890625 214.816406 159.5625 213.894531 160.027344 C 212.972656 160.484375 211.90625 161.070312 211.070312 159.921875 C 210.398438 159 210.386719 157.933594 211.070312 156.988281 C 216.214844 149.882812 223.824219 146.984375 232.214844 151.542969 C 235.515625 153.339844 238.21875 155.160156 242.289062 153.6875 C 245.0625 152.679688 246.5 154.644531 245.304688 157.394531 C 243.9375 160.519531 241.355469 162.132812 238.507812 162.398438 C 235.695312 162.363281 233.9375 161.1875 232.308594 159.847656 Z M 108.96875 514.875 C 110.308594 526.613281 112.355469 538.304688 114.761719 549.886719 C 117.023438 560.785156 118.734375 571.820312 121.652344 582.597656 C 122.273438 584.886719 122 587.503906 124.007812 589.0625 C 126.105469 590.6875 128.832031 590.890625 131.453125 591.132812 C 133.4375 591.308594 134.253906 590.796875 134.121094 588.546875 C 133.917969 584.886719 133.761719 581.210938 133.988281 577.515625 C 134.109375 575.550781 134.898438 574.476562 136.464844 574.03125 C 138.378906 573.492188 138.941406 575.21875 139.375 576.519531 C 140.714844 580.515625 140.582031 584.742188 140.90625 588.882812 C 141.058594 590.785156 140.808594 592.460938 143.464844 591.8125 C 145.558594 591.296875 149.089844 593.597656 149.015625 588.679688 C 148.957031 585.039062 148.539062 581.378906 149.257812 577.707031 C 149.554688 576.1875 149.089844 574.332031 151.015625 573.816406 C 152.929688 573.3125 153.289062 575.683594 154.699219 576.355469 C 155.585938 576.773438 155.203125 578.027344 155.214844 578.914062 C 155.238281 582.0625 155.191406 585.207031 155.203125 588.34375 C 155.203125 589.71875 154.773438 591.488281 157.226562 591.046875 C 158.984375 590.722656 160.050781 590.113281 159.582031 587.875 C 159.054688 585.328125 159.355469 582.777344 159.871094 580.132812 C 161.089844 573.804688 159.667969 571.878906 153.386719 569.710938 C 148.742188 568.109375 143.933594 568.15625 139.097656 567.953125 C 134.816406 567.785156 130.675781 569.796875 126.246094 568.253906 C 124.355469 567.582031 124.175781 567.152344 125.0625 565.714844 C 125.746094 564.605469 126.605469 563.765625 127.816406 563.058594 C 132.613281 560.234375 137.878906 560.488281 143.058594 560.65625 C 148.96875 560.847656 154.355469 563.203125 159.761719 566.136719 C 160.097656 563.359375 160.683594 560.964844 160.625 558.585938 C 160.300781 545.746094 161.175781 532.941406 161.414062 520.117188 C 161.617188 508.964844 161.867188 497.824219 162.109375 486.671875 C 157.058594 483.5 151.21875 482.160156 145.59375 481.371094 C 138.058594 480.320312 130.316406 481.15625 122.765625 482.710938 C 116.246094 484.050781 110.261719 486.300781 106.359375 492.175781 C 107.257812 499.75 108.109375 507.324219 108.96875 514.875 Z M 260.917969 461.953125 C 261.707031 450.34375 260.988281 438.785156 260.105469 427.203125 C 259.457031 418.710938 259.195312 410.191406 258.082031 401.71875 C 256.683594 391.164062 255.75 380.539062 253.964844 370.070312 C 253.082031 364.902344 254.167969 359.613281 252.410156 354.597656 C 248.355469 353.34375 244.679688 354.273438 240.875 356.011719 C 235.765625 358.34375 231.9375 362.089844 228.0625 365.929688 C 222.148438 371.78125 218.417969 379.042969 216.347656 386.773438 C 213.234375 398.414062 214.15625 410.273438 216.886719 422.035156 C 219.699219 434.132812 224.949219 445.09375 233.707031 453.671875 C 240.828125 460.648438 249.636719 465.554688 260.414062 464.621094 C 260.582031 463.722656 260.859375 462.835938 260.917969 461.953125 Z M 260.117188 540.757812 C 261.613281 540.207031 262.460938 539.917969 263.300781 539.582031 C 271.675781 536.234375 279.96875 536.605469 288.007812 540.515625 C 290.113281 541.546875 292.757812 543.28125 291.082031 546.273438 C 289.660156 548.820312 287.21875 547.648438 285.207031 546.679688 C 277.695312 543.066406 269.890625 543.089844 261.921875 544.691406 C 259.972656 545.089844 259.160156 546.199219 258.800781 548.089844 C 257.734375 553.75 256.632812 559.410156 255.332031 565.023438 C 254.433594 568.898438 254.839844 569.402344 258.691406 568.707031 C 260.894531 568.3125 260.378906 566.851562 260.464844 565.453125 C 260.714844 560.964844 260.355469 556.25 263.980469 552.746094 C 264.6875 552.0625 265.488281 550.605469 266.9375 551.824219 C 267.917969 552.648438 268.15625 553.402344 267.761719 554.851562 C 266.839844 558.203125 266.375 561.660156 266.566406 565.226562 C 266.671875 567.234375 267.667969 567.796875 269.136719 567.941406 C 272.753906 568.300781 274.332031 566.902344 274.617188 563.238281 C 274.714844 561.921875 274.738281 560.605469 274.667969 559.289062 C 274.523438 556.5625 275.863281 554.578125 277.621094 552.699219 C 278.53125 551.730469 279.464844 551.179688 280.734375 551.621094 C 281.917969 552.039062 281.882812 553.105469 281.859375 554.167969 C 281.785156 557.28125 281.90625 560.402344 281.703125 563.503906 C 281.570312 565.523438 282.324219 566.074219 284.167969 565.824219 C 285.734375 565.621094 287.132812 565.382812 288.425781 564.148438 C 294.121094 558.703125 298.882812 552.78125 301.949219 545.304688 C 306.734375 533.613281 310.480469 521.753906 311.042969 509.082031 C 311.398438 500.996094 311.339844 492.882812 309.320312 484.9375 C 303.503906 486.363281 298 488.742188 292.816406 491.578125 C 281.820312 497.609375 272.835938 506.210938 264.316406 515.292969 C 262.941406 523.644531 261.5625 531.972656 260.117188 540.757812 Z M 440.902344 290.5 C 455.332031 290.296875 469.464844 291.457031 483.414062 295.894531 C 494.101562 299.292969 502.152344 305.335938 507.910156 314.65625 C 512.074219 321.40625 517.78125 326.636719 523.847656 331.527344 C 525.03125 332.484375 526.46875 332.628906 527.960938 332.101562 C 533.011719 330.355469 535.726562 324.578125 533.585938 319.707031 C 531.300781 314.515625 528.117188 309.835938 524.601562 305.410156 C 517.648438 296.660156 508.792969 290.222656 498.921875 285.234375 C 484.382812 277.875 469.082031 273.414062 452.59375 273.925781 C 445.761719 278.894531 438.953125 283.894531 434.320312 291.207031 C 436.605469 291.910156 438.664062 290.535156 440.902344 290.5 Z M 116.578125 264.355469 C 116.542969 265.203125 116.460938 265.597656 116.507812 265.980469 C 118.0625 279.585938 116.554688 292.964844 113.5625 306.234375 C 111.003906 317.589844 107.558594 328.691406 104.339844 339.867188 C 102.628906 345.839844 99.550781 351.402344 99.039062 357.722656 C 100.269531 358.273438 101.179688 357.265625 101.8125 356.714844 C 108.347656 351.042969 114.855469 345.347656 120.480469 338.707031 C 127.957031 329.902344 133.582031 320.078125 136.898438 309.011719 C 139.207031 301.304688 140.320312 293.417969 139.566406 285.34375 C 139.050781 279.898438 136.871094 275.148438 133.929688 270.648438 C 127.71875 269.992188 122.453125 266.542969 116.578125 264.355469 Z M 389.414062 504.992188 C 384.675781 512.984375 378.695312 519.902344 371.011719 525.140625 C 365.292969 529.042969 358.9375 531.832031 352.394531 534.117188 C 350.933594 537.835938 347.453125 539.964844 345.261719 543.171875 C 343.226562 546.140625 340.992188 548.976562 339.242188 552.148438 C 347.152344 550.734375 355.050781 549.480469 362.769531 547.003906 C 377.617188 542.238281 391.605469 536.257812 402.828125 524.84375 C 413.320312 514.167969 418.851562 501.605469 419.425781 486.746094 C 415.726562 487.785156 412.628906 489.988281 409.363281 491.867188 C 403.320312 495.371094 397.3125 498.949219 391.304688 502.503906 C 390.660156 503.328125 389.941406 504.105469 389.414062 504.992188 Z M 144.9375 54.851562 C 144.914062 51.515625 146.230469 48.628906 148.742188 46.632812 C 155.347656 41.367188 162.945312 38.304688 171.367188 37.394531 C 174.300781 36.304688 172.148438 33.722656 172.960938 32.011719 C 169.800781 33.519531 166.296875 33.960938 162.980469 34.785156 C 152.140625 37.464844 144.230469 43.519531 139.109375 53.355469 C 138.65625 55.964844 138.1875 58.5625 137.734375 61.171875 C 136.957031 64.339844 137.578125 67.882812 134.730469 70.492188 C 132.121094 72.882812 132.746094 75.578125 134.527344 78.246094 C 137.136719 82.15625 136.464844 85.890625 132.671875 88.835938 C 131.953125 89.394531 131.140625 89.863281 130.460938 90.460938 C 129.441406 91.359375 128.449219 92.484375 129.347656 93.859375 C 130.242188 95.234375 131.679688 95.296875 133.199219 94.695312 C 135.222656 93.90625 136.777344 92.4375 138.726562 90.796875 C 138.726562 93.800781 138.714844 96.300781 138.726562 98.800781 C 138.738281 100.632812 138.535156 103.050781 140.988281 103.023438 C 143.835938 103 143.742188 100.378906 143.632812 98.285156 C 143.5 95.679688 143.285156 93.09375 144.46875 90.507812 C 146.121094 91.144531 147.726562 91.71875 149.292969 92.351562 C 151.125 93.09375 152.894531 93.011719 154.558594 91.945312 C 155.632812 91.25 157.082031 90.617188 156.640625 88.988281 C 156.292969 87.683594 155.011719 87.433594 153.78125 87.3125 C 150.359375 86.980469 147.59375 85.339844 145.273438 82.886719 C 144.148438 81.691406 143.921875 80.792969 145.332031 79.34375 C 149.363281 75.167969 149.351562 73.039062 145.164062 69.128906 C 143.296875 67.378906 143.167969 65.65625 143.730469 63.527344 C 143.933594 60.59375 143.632812 57.617188 144.9375 54.851562 Z M 97.636719 359.359375 C 98.605469 359.242188 99.539062 359.097656 99.039062 357.722656 C 98.03125 357.804688 97.851562 358.59375 97.636719 359.359375 Z M 97.636719 359.359375 " fill-opacity="1" fill-rule="nonzero"/><path fill="#fd7575" d="M 99.78125 123.113281 C 100.210938 122.253906 101.347656 121.261719 100.6875 120.265625 C 99.960938 119.179688 98.441406 119.539062 97.457031 119.847656 C 95.234375 120.566406 93.113281 120.636719 90.914062 119.921875 C 89.691406 119.523438 88.652344 118.890625 88.605469 117.574219 C 88.566406 116.320312 89.730469 115.910156 90.769531 115.636719 C 93.164062 115.003906 95.554688 114.402344 98.152344 113.746094 C 93.269531 109.332031 87.300781 106.472656 84.308594 99.460938 C 91.605469 101.433594 95.566406 107.082031 101.25 109.941406 C 101.214844 105.789062 98.824219 102.03125 99.707031 97.351562 C 104.183594 101.503906 104.902344 106.84375 106.695312 112.191406 C 108.644531 109.210938 110.957031 107.128906 113.027344 104.832031 C 115.921875 101.613281 114.640625 96.707031 110.703125 95.234375 C 98.714844 90.785156 86.175781 88.488281 73.753906 85.746094 C 71.515625 85.257812 69.257812 84.261719 66.707031 85.28125 C 72.605469 103.371094 78.671875 121.296875 93.546875 134.839844 C 95.6875 130.867188 97.816406 127.039062 99.78125 123.113281 Z M 271.246094 132.652344 C 272.296875 134.949219 273.183594 134.339844 274.273438 133.046875 C 277.261719 129.492188 280.566406 126.105469 283.054688 122.21875 C 290.378906 110.789062 295.257812 98.25 299.148438 84.933594 C 297.699219 84.933594 296.359375 84.683594 295.140625 84.96875 C 281.488281 88.175781 267.679688 90.773438 254.398438 95.390625 C 251.476562 96.40625 250.125 102.089844 252.433594 104.414062 C 254.78125 106.769531 257.078125 109.175781 259.421875 112 C 260.140625 107.871094 261.46875 104.460938 263 101.144531 C 263.5625 99.925781 264.304688 98 265.980469 98.644531 C 267.367188 99.183594 266.625 100.882812 266.277344 102.128906 C 265.464844 105.035156 264.699219 107.964844 263.789062 111.328125 C 269.582031 106.984375 273.972656 101.515625 281.378906 99.6875 C 279.214844 106.722656 272.238281 108.660156 268.683594 113.804688 C 271.230469 114.390625 273.457031 114.691406 275.527344 115.445312 C 278.292969 116.449219 278.003906 118.019531 275.921875 119.65625 C 274.773438 120.554688 273.492188 120.46875 272.175781 120.457031 C 269.6875 120.445312 267.296875 119.394531 264.53125 119.871094 C 266.816406 124.191406 269.246094 128.320312 271.246094 132.652344 Z M 191.996094 199.753906 C 193.0625 199.273438 194.449219 199.132812 194.535156 197.695312 C 194.605469 196.402344 193.433594 195.699219 192.546875 194.945312 C 191.015625 193.628906 188.980469 193.855469 187.28125 193.792969 C 182.582031 193.652344 177.652344 192.695312 173.296875 195.421875 C 170.496094 197.179688 170.699219 198.078125 173.570312 199.65625 C 175.53125 200.746094 178.464844 200.015625 179.503906 202.792969 C 181.625 202.769531 183.753906 202.757812 185.871094 202.734375 C 187.210938 200.328125 189.925781 200.6875 191.996094 199.753906 Z M 191.996094 199.753906 " fill-opacity="1" fill-rule="nonzero"/></svg>