<svg xmlns="http://www.w3.org/2000/svg" xmlns:xlink="http://www.w3.org/1999/xlink" width="1280" zoomAndPan="magnify" viewBox="0 0 960 599.999999" height="800" preserveAspectRatio="xMidYMid meet" version="1.0"><defs><clipPath id="b55ce0a968"><path d="M 220.230469 40.230469 L 739.980469 40.230469 L 739.980469 559.980469 L 220.230469 559.980469 Z M 220.230469 40.230469 " clip-rule="nonzero"/></clipPath></defs><g clip-path="url(#b55ce0a968)"><path fill="#e7b0f8" d="M 739.769531 300 C 739.769531 304.25 739.664062 308.5 739.457031 312.746094 C 739.246094 316.992188 738.933594 321.230469 738.519531 325.460938 C 738.101562 329.691406 737.582031 333.910156 736.957031 338.113281 C 736.332031 342.320312 735.605469 346.507812 734.777344 350.675781 C 733.949219 354.847656 733.015625 358.992188 731.984375 363.117188 C 730.949219 367.242188 729.816406 371.335938 728.582031 375.40625 C 727.347656 379.472656 726.015625 383.511719 724.582031 387.511719 C 723.152344 391.515625 721.621094 395.480469 719.996094 399.410156 C 718.367188 403.335938 716.644531 407.222656 714.828125 411.066406 C 713.011719 414.90625 711.097656 418.703125 709.09375 422.453125 C 707.089844 426.203125 704.996094 429.902344 702.8125 433.546875 C 700.625 437.195312 698.351562 440.785156 695.988281 444.320312 C 693.628906 447.855469 691.179688 451.328125 688.648438 454.742188 C 686.117188 458.15625 683.5 461.507812 680.804688 464.796875 C 678.105469 468.082031 675.332031 471.300781 672.476562 474.449219 C 669.621094 477.597656 666.691406 480.675781 663.683594 483.683594 C 660.675781 486.691406 657.597656 489.621094 654.449219 492.476562 C 651.300781 495.332031 648.082031 498.105469 644.796875 500.804688 C 641.507812 503.5 638.15625 506.117188 634.742188 508.648438 C 631.328125 511.179688 627.855469 513.628906 624.320312 515.988281 C 620.785156 518.351562 617.195312 520.625 613.546875 522.8125 C 609.902344 524.996094 606.203125 527.089844 602.453125 529.09375 C 598.703125 531.097656 594.90625 533.011719 591.066406 534.828125 C 587.222656 536.644531 583.335938 538.367188 579.410156 539.996094 C 575.480469 541.621094 571.515625 543.152344 567.511719 544.582031 C 563.511719 546.015625 559.472656 547.347656 555.40625 548.582031 C 551.335938 549.816406 547.242188 550.949219 543.117188 551.984375 C 538.992188 553.015625 534.847656 553.949219 530.675781 554.777344 C 526.507812 555.605469 522.320312 556.332031 518.113281 556.957031 C 513.910156 557.582031 509.691406 558.101562 505.460938 558.519531 C 501.230469 558.933594 496.992188 559.246094 492.746094 559.457031 C 488.5 559.664062 484.25 559.769531 480 559.769531 C 475.746094 559.769531 471.5 559.664062 467.253906 559.457031 C 463.007812 559.246094 458.769531 558.933594 454.539062 558.519531 C 450.304688 558.101562 446.089844 557.582031 441.882812 556.957031 C 437.675781 556.332031 433.488281 555.605469 429.320312 554.777344 C 425.152344 553.949219 421.003906 553.015625 416.878906 551.984375 C 412.757812 550.949219 408.660156 549.816406 404.59375 548.582031 C 400.523438 547.347656 396.488281 546.015625 392.484375 544.582031 C 388.484375 543.152344 384.515625 541.621094 380.589844 539.996094 C 376.660156 538.367188 372.777344 536.644531 368.933594 534.828125 C 365.089844 533.011719 361.292969 531.097656 357.542969 529.09375 C 353.796875 527.089844 350.097656 524.996094 346.449219 522.8125 C 342.804688 520.625 339.214844 518.351562 335.679688 515.988281 C 332.144531 513.628906 328.667969 511.179688 325.253906 508.648438 C 321.839844 506.117188 318.488281 503.5 315.203125 500.804688 C 311.917969 498.105469 308.699219 495.332031 305.546875 492.476562 C 302.398438 489.621094 299.320312 486.691406 296.3125 483.683594 C 293.308594 480.675781 290.378906 477.597656 287.523438 474.449219 C 284.667969 471.300781 281.890625 468.082031 279.195312 464.796875 C 276.496094 461.507812 273.882812 458.160156 271.351562 454.742188 C 268.816406 451.328125 266.371094 447.855469 264.007812 444.320312 C 261.648438 440.785156 259.371094 437.195312 257.1875 433.546875 C 255 429.902344 252.90625 426.203125 250.902344 422.453125 C 248.898438 418.703125 246.988281 414.90625 245.171875 411.066406 C 243.351562 407.222656 241.628906 403.335938 240.003906 399.410156 C 238.375 395.480469 236.847656 391.515625 235.414062 387.511719 C 233.980469 383.511719 232.648438 379.472656 231.414062 375.40625 C 230.179688 371.335938 229.046875 367.242188 228.015625 363.117188 C 226.980469 358.992188 226.050781 354.847656 225.222656 350.675781 C 224.390625 346.507812 223.664062 342.320312 223.042969 338.113281 C 222.417969 333.910156 221.898438 329.691406 221.480469 325.460938 C 221.0625 321.230469 220.75 316.992188 220.542969 312.746094 C 220.332031 308.5 220.230469 304.25 220.230469 300 C 220.230469 295.746094 220.332031 291.5 220.542969 287.253906 C 220.75 283.007812 221.0625 278.769531 221.480469 274.539062 C 221.898438 270.304688 222.417969 266.089844 223.042969 261.882812 C 223.664062 257.675781 224.390625 253.488281 225.222656 249.320312 C 226.050781 245.152344 226.980469 241.003906 228.015625 236.878906 C 229.046875 232.757812 230.179688 228.660156 231.414062 224.59375 C 232.648438 220.523438 233.980469 216.488281 235.414062 212.484375 C 236.847656 208.484375 238.375 204.515625 240.003906 200.589844 C 241.628906 196.660156 243.351562 192.777344 245.171875 188.933594 C 246.988281 185.089844 248.898438 181.292969 250.902344 177.542969 C 252.90625 173.796875 255 170.097656 257.1875 166.449219 C 259.371094 162.804688 261.648438 159.214844 264.007812 155.679688 C 266.371094 152.144531 268.816406 148.667969 271.351562 145.253906 C 273.882812 141.839844 276.496094 138.488281 279.195312 135.203125 C 281.890625 131.917969 284.667969 128.699219 287.523438 125.546875 C 290.378906 122.398438 293.308594 119.320312 296.3125 116.3125 C 299.320312 113.308594 302.398438 110.378906 305.546875 107.523438 C 308.699219 104.667969 311.917969 101.890625 315.203125 99.195312 C 318.488281 96.496094 321.839844 93.882812 325.253906 91.351562 C 328.667969 88.816406 332.144531 86.371094 335.679688 84.007812 C 339.214844 81.648438 342.804688 79.371094 346.449219 77.1875 C 350.097656 75 353.796875 72.90625 357.542969 70.902344 C 361.292969 68.898438 365.089844 66.988281 368.933594 65.171875 C 372.777344 63.351562 376.660156 61.628906 380.589844 60.003906 C 384.515625 58.375 388.484375 56.847656 392.484375 55.414062 C 396.488281 53.980469 400.523438 52.648438 404.59375 51.414062 C 408.660156 50.179688 412.757812 49.046875 416.878906 48.015625 C 421.003906 46.980469 425.152344 46.050781 429.320312 45.222656 C 433.488281 44.390625 437.675781 43.664062 441.882812 43.042969 C 446.089844 42.417969 450.304688 41.898438 454.539062 41.480469 C 458.769531 41.0625 463.007812 40.75 467.253906 40.542969 C 471.5 40.332031 475.746094 40.230469 480 40.230469 C 484.25 40.230469 488.5 40.332031 492.746094 40.542969 C 496.992188 40.75 501.230469 41.0625 505.460938 41.480469 C 509.691406 41.898438 513.910156 42.417969 518.113281 43.042969 C 522.320312 43.664062 526.507812 44.390625 530.675781 45.222656 C 534.847656 46.050781 538.992188 46.980469 543.117188 48.015625 C 547.242188 49.046875 551.335938 50.179688 555.40625 51.414062 C 559.472656 52.648438 563.511719 53.980469 567.511719 55.414062 C 571.515625 56.847656 575.480469 58.375 579.410156 60.003906 C 583.335938 61.628906 587.222656 63.351562 591.066406 65.171875 C 594.90625 66.988281 598.703125 68.898438 602.453125 70.902344 C 606.203125 72.90625 609.902344 75 613.546875 77.1875 C 617.195312 79.371094 620.785156 81.648438 624.320312 84.007812 C 627.855469 86.371094 631.328125 88.816406 634.742188 91.351562 C 638.15625 93.882812 641.507812 96.496094 644.796875 99.195312 C 648.082031 101.890625 651.300781 104.667969 654.449219 107.523438 C 657.597656 110.378906 660.675781 113.308594 663.683594 116.3125 C 666.691406 119.320312 669.621094 122.398438 672.476562 125.546875 C 675.332031 128.699219 678.105469 131.917969 680.804688 135.203125 C 683.5 138.488281 686.117188 141.839844 688.648438 145.253906 C 691.179688 148.667969 693.628906 152.144531 695.988281 155.679688 C 698.351562 159.214844 700.625 162.804688 702.8125 166.449219 C 704.996094 170.097656 707.089844 173.796875 709.09375 177.542969 C 711.097656 181.292969 713.011719 185.089844 714.828125 188.933594 C 716.644531 192.777344 718.367188 196.660156 719.996094 200.589844 C 721.621094 204.515625 723.152344 208.484375 724.582031 212.484375 C 726.015625 216.488281 727.347656 220.523438 728.582031 224.59375 C 729.816406 228.660156 730.949219 232.757812 731.984375 236.878906 C 733.015625 241.003906 733.949219 245.152344 734.777344 249.320312 C 735.605469 253.488281 736.332031 257.675781 736.957031 261.882812 C 737.582031 266.089844 738.101562 270.304688 738.519531 274.539062 C 738.933594 278.769531 739.246094 283.007812 739.457031 287.253906 C 739.664062 291.5 739.769531 295.746094 739.769531 300 Z M 739.769531 300 " fill-opacity="1" fill-rule="nonzero"/></g><path fill="#000000" d="M 611.3125 468.847656 L 347.644531 468.847656 C 346.433594 468.847656 345.226562 468.789062 344.019531 468.667969 C 342.8125 468.546875 341.617188 468.367188 340.425781 468.132812 C 339.238281 467.894531 338.066406 467.597656 336.90625 467.246094 C 335.746094 466.894531 334.605469 466.484375 333.488281 466.019531 C 332.367188 465.554688 331.273438 465.039062 330.203125 464.464844 C 329.136719 463.894531 328.097656 463.273438 327.089844 462.597656 C 326.082031 461.925781 325.109375 461.203125 324.175781 460.433594 C 323.238281 459.664062 322.339844 458.851562 321.484375 457.996094 C 320.625 457.136719 319.8125 456.242188 319.042969 455.304688 C 318.277344 454.367188 317.554688 453.394531 316.878906 452.386719 C 316.207031 451.378906 315.585938 450.34375 315.011719 449.273438 C 314.441406 448.203125 313.921875 447.109375 313.457031 445.992188 C 312.992188 444.871094 312.585938 443.730469 312.234375 442.574219 C 311.878906 441.414062 311.585938 440.238281 311.347656 439.050781 C 311.109375 437.863281 310.929688 436.664062 310.8125 435.460938 C 310.691406 434.253906 310.628906 433.042969 310.628906 431.832031 L 310.628906 168.164062 C 310.628906 166.953125 310.691406 165.746094 310.8125 164.539062 C 310.929688 163.332031 311.109375 162.136719 311.347656 160.945312 C 311.585938 159.757812 311.878906 158.585938 312.234375 157.425781 C 312.585938 156.265625 312.992188 155.125 313.457031 154.007812 C 313.921875 152.886719 314.441406 151.792969 315.011719 150.722656 C 315.585938 149.65625 316.207031 148.617188 316.878906 147.609375 C 317.554688 146.601562 318.277344 145.628906 319.042969 144.695312 C 319.8125 143.757812 320.625 142.859375 321.484375 142.003906 C 322.339844 141.144531 323.238281 140.332031 324.175781 139.5625 C 325.109375 138.796875 326.082031 138.074219 327.089844 137.398438 C 328.097656 136.726562 329.136719 136.105469 330.203125 135.53125 C 331.273438 134.960938 332.367188 134.441406 333.488281 133.976562 C 334.605469 133.511719 335.746094 133.105469 336.90625 132.753906 C 338.066406 132.398438 339.238281 132.105469 340.425781 131.867188 C 341.617188 131.628906 342.8125 131.449219 344.019531 131.332031 C 345.226562 131.210938 346.433594 131.148438 347.644531 131.148438 L 611.3125 131.148438 C 612.523438 131.148438 613.734375 131.210938 614.9375 131.332031 C 616.144531 131.449219 617.34375 131.628906 618.53125 131.867188 C 619.71875 132.105469 620.894531 132.398438 622.054688 132.753906 C 623.210938 133.105469 624.351562 133.511719 625.472656 133.976562 C 626.589844 134.441406 627.683594 134.960938 628.753906 135.53125 C 629.824219 136.105469 630.859375 136.726562 631.867188 137.398438 C 632.875 138.074219 633.847656 138.796875 634.785156 139.5625 C 635.722656 140.332031 636.617188 141.144531 637.476562 142.003906 C 638.332031 142.859375 639.144531 143.757812 639.914062 144.695312 C 640.683594 145.628906 641.40625 146.601562 642.078125 147.609375 C 642.75 148.617188 643.375 149.65625 643.945312 150.722656 C 644.519531 151.792969 645.035156 152.886719 645.5 154.007812 C 645.964844 155.125 646.375 156.265625 646.726562 157.425781 C 647.078125 158.585938 647.375 159.757812 647.613281 160.945312 C 647.847656 162.136719 648.027344 163.332031 648.148438 164.539062 C 648.265625 165.746094 648.328125 166.953125 648.328125 168.164062 L 648.328125 431.832031 C 648.328125 433.042969 648.269531 434.253906 648.148438 435.460938 C 648.027344 436.664062 647.847656 437.863281 647.613281 439.050781 C 647.375 440.238281 647.078125 441.414062 646.726562 442.574219 C 646.375 443.734375 645.964844 444.871094 645.5 445.992188 C 645.035156 447.109375 644.519531 448.203125 643.945312 449.273438 C 643.375 450.34375 642.753906 451.378906 642.078125 452.386719 C 641.40625 453.394531 640.683594 454.367188 639.914062 455.304688 C 639.144531 456.242188 638.332031 457.136719 637.476562 457.996094 C 636.617188 458.851562 635.722656 459.664062 634.785156 460.433594 C 633.847656 461.203125 632.875 461.925781 631.867188 462.597656 C 630.859375 463.273438 629.824219 463.894531 628.753906 464.464844 C 627.683594 465.039062 626.589844 465.554688 625.472656 466.019531 C 624.351562 466.484375 623.210938 466.894531 622.054688 467.246094 C 620.894531 467.597656 619.71875 467.894531 618.53125 468.132812 C 617.34375 468.367188 616.144531 468.546875 614.941406 468.667969 C 613.734375 468.789062 612.523438 468.847656 611.3125 468.847656 Z M 347.644531 145.09375 C 346.890625 145.09375 346.136719 145.132812 345.386719 145.207031 C 344.632812 145.28125 343.886719 145.394531 343.148438 145.539062 C 342.40625 145.6875 341.675781 145.871094 340.953125 146.09375 C 340.230469 146.3125 339.519531 146.566406 338.820312 146.855469 C 338.125 147.144531 337.441406 147.46875 336.773438 147.824219 C 336.109375 148.183594 335.460938 148.570312 334.835938 148.988281 C 334.207031 149.410156 333.601562 149.859375 333.015625 150.339844 C 332.433594 150.816406 331.875 151.324219 331.339844 151.859375 C 330.804688 152.394531 330.296875 152.953125 329.820312 153.535156 C 329.339844 154.121094 328.890625 154.726562 328.46875 155.355469 C 328.050781 155.980469 327.664062 156.628906 327.304688 157.292969 C 326.949219 157.960938 326.625 158.644531 326.335938 159.339844 C 326.046875 160.039062 325.792969 160.75 325.574219 161.472656 C 325.351562 162.195312 325.167969 162.925781 325.019531 163.667969 C 324.875 164.40625 324.761719 165.152344 324.6875 165.90625 C 324.613281 166.65625 324.574219 167.410156 324.574219 168.164062 L 324.574219 431.832031 C 324.574219 432.585938 324.613281 433.339844 324.6875 434.09375 C 324.761719 434.84375 324.875 435.589844 325.019531 436.332031 C 325.167969 437.074219 325.351562 437.804688 325.574219 438.527344 C 325.792969 439.25 326.046875 439.960938 326.335938 440.65625 C 326.625 441.355469 326.949219 442.039062 327.304688 442.703125 C 327.664062 443.371094 328.050781 444.015625 328.46875 444.644531 C 328.890625 445.273438 329.339844 445.878906 329.820312 446.460938 C 330.296875 447.046875 330.804688 447.605469 331.339844 448.140625 C 331.875 448.671875 332.433594 449.179688 333.015625 449.660156 C 333.601562 450.140625 334.207031 450.589844 334.835938 451.007812 C 335.460938 451.429688 336.109375 451.816406 336.773438 452.171875 C 337.441406 452.527344 338.125 452.851562 338.820312 453.140625 C 339.519531 453.429688 340.230469 453.6875 340.953125 453.90625 C 341.675781 454.125 342.40625 454.308594 343.148438 454.457031 C 343.886719 454.605469 344.632812 454.714844 345.386719 454.792969 C 346.136719 454.867188 346.890625 454.902344 347.644531 454.90625 L 611.3125 454.90625 C 612.066406 454.902344 612.820312 454.867188 613.574219 454.792969 C 614.324219 454.714844 615.070312 454.605469 615.8125 454.457031 C 616.550781 454.308594 617.285156 454.125 618.007812 453.90625 C 618.730469 453.6875 619.441406 453.429688 620.136719 453.140625 C 620.835938 452.851562 621.519531 452.527344 622.183594 452.171875 C 622.851562 451.816406 623.496094 451.429688 624.125 451.007812 C 624.753906 450.589844 625.359375 450.140625 625.941406 449.660156 C 626.527344 449.179688 627.085938 448.671875 627.621094 448.140625 C 628.152344 447.605469 628.660156 447.046875 629.140625 446.460938 C 629.621094 445.878906 630.070312 445.273438 630.488281 444.644531 C 630.910156 444.015625 631.296875 443.371094 631.652344 442.703125 C 632.007812 442.039062 632.332031 441.355469 632.621094 440.65625 C 632.910156 439.960938 633.167969 439.25 633.386719 438.527344 C 633.605469 437.804688 633.789062 437.074219 633.9375 436.332031 C 634.085938 435.589844 634.195312 434.84375 634.273438 434.09375 C 634.347656 433.339844 634.382812 432.585938 634.386719 431.832031 L 634.386719 168.164062 C 634.382812 167.410156 634.347656 166.65625 634.273438 165.90625 C 634.195312 165.152344 634.085938 164.40625 633.9375 163.667969 C 633.789062 162.925781 633.605469 162.195312 633.386719 161.472656 C 633.167969 160.75 632.910156 160.039062 632.621094 159.339844 C 632.332031 158.644531 632.007812 157.960938 631.652344 157.292969 C 631.296875 156.628906 630.910156 155.980469 630.488281 155.355469 C 630.070312 154.726562 629.621094 154.121094 629.140625 153.535156 C 628.660156 152.953125 628.152344 152.394531 627.621094 151.859375 C 627.085938 151.324219 626.527344 150.816406 625.941406 150.339844 C 625.359375 149.859375 624.753906 149.410156 624.125 148.988281 C 623.496094 148.570312 622.851562 148.183594 622.183594 147.824219 C 621.519531 147.46875 620.835938 147.144531 620.136719 146.855469 C 619.441406 146.566406 618.730469 146.3125 618.007812 146.09375 C 617.285156 145.871094 616.554688 145.6875 615.8125 145.539062 C 615.070312 145.394531 614.324219 145.28125 613.574219 145.207031 C 612.820312 145.132812 612.066406 145.09375 611.3125 145.09375 Z M 347.644531 145.09375 " fill-opacity="1" fill-rule="nonzero"/><path fill="#000000" d="M 601.730469 443.464844 L 357.226562 443.464844 C 356.53125 443.464844 355.839844 443.429688 355.148438 443.359375 C 354.457031 443.292969 353.769531 443.1875 353.089844 443.050781 C 352.410156 442.917969 351.734375 442.746094 351.070312 442.546875 C 350.40625 442.34375 349.753906 442.109375 349.113281 441.84375 C 348.472656 441.578125 347.84375 441.28125 347.230469 440.953125 C 346.621094 440.625 346.023438 440.265625 345.449219 439.882812 C 344.871094 439.496094 344.3125 439.082031 343.777344 438.640625 C 343.238281 438.199219 342.726562 437.734375 342.234375 437.242188 C 341.742188 436.753906 341.277344 436.238281 340.835938 435.703125 C 340.394531 435.164062 339.984375 434.609375 339.597656 434.03125 C 339.210938 433.453125 338.855469 432.859375 338.527344 432.246094 C 338.199219 431.632812 337.902344 431.007812 337.636719 430.367188 C 337.371094 429.722656 337.136719 429.070312 336.933594 428.40625 C 336.730469 427.742188 336.5625 427.070312 336.425781 426.386719 C 336.289062 425.707031 336.1875 425.019531 336.117188 424.332031 C 336.050781 423.640625 336.015625 422.945312 336.015625 422.25 L 336.015625 177.746094 C 336.015625 177.050781 336.050781 176.359375 336.117188 175.667969 C 336.1875 174.976562 336.289062 174.289062 336.425781 173.609375 C 336.5625 172.929688 336.730469 172.253906 336.933594 171.589844 C 337.132812 170.925781 337.367188 170.273438 337.632812 169.632812 C 337.898438 168.988281 338.195312 168.363281 338.523438 167.75 C 338.851562 167.136719 339.210938 166.542969 339.59375 165.964844 C 339.980469 165.386719 340.394531 164.832031 340.835938 164.292969 C 341.277344 163.757812 341.742188 163.242188 342.234375 162.753906 C 342.722656 162.261719 343.238281 161.796875 343.773438 161.355469 C 344.3125 160.914062 344.867188 160.5 345.445312 160.113281 C 346.023438 159.730469 346.617188 159.371094 347.230469 159.042969 C 347.84375 158.714844 348.46875 158.417969 349.113281 158.152344 C 349.753906 157.886719 350.40625 157.652344 351.070312 157.453125 C 351.734375 157.25 352.410156 157.082031 353.089844 156.945312 C 353.769531 156.808594 354.457031 156.707031 355.148438 156.636719 C 355.839844 156.570312 356.53125 156.535156 357.226562 156.535156 L 601.730469 156.535156 C 602.425781 156.535156 603.121094 156.570312 603.8125 156.636719 C 604.5 156.707031 605.1875 156.808594 605.871094 156.945312 C 606.550781 157.082031 607.222656 157.25 607.886719 157.453125 C 608.550781 157.652344 609.207031 157.886719 609.847656 158.152344 C 610.488281 158.417969 611.117188 158.714844 611.726562 159.042969 C 612.339844 159.371094 612.933594 159.730469 613.511719 160.113281 C 614.089844 160.5 614.648438 160.914062 615.183594 161.355469 C 615.71875 161.796875 616.234375 162.261719 616.726562 162.753906 C 617.21875 163.242188 617.683594 163.757812 618.125 164.292969 C 618.5625 164.832031 618.976562 165.386719 619.363281 165.964844 C 619.75 166.542969 620.105469 167.136719 620.433594 167.75 C 620.761719 168.363281 621.058594 168.988281 621.324219 169.632812 C 621.589844 170.273438 621.824219 170.925781 622.027344 171.589844 C 622.230469 172.253906 622.398438 172.929688 622.535156 173.609375 C 622.667969 174.289062 622.773438 174.976562 622.839844 175.667969 C 622.910156 176.359375 622.945312 177.050781 622.945312 177.746094 L 622.945312 422.25 C 622.945312 422.945312 622.910156 423.640625 622.839844 424.332031 C 622.773438 425.019531 622.667969 425.707031 622.53125 426.386719 C 622.398438 427.070312 622.226562 427.742188 622.027344 428.40625 C 621.824219 429.070312 621.589844 429.722656 621.324219 430.367188 C 621.058594 431.007812 620.761719 431.632812 620.433594 432.246094 C 620.105469 432.859375 619.746094 433.453125 619.363281 434.03125 C 618.976562 434.609375 618.5625 435.164062 618.121094 435.703125 C 617.679688 436.238281 617.214844 436.753906 616.722656 437.242188 C 616.234375 437.734375 615.71875 438.199219 615.183594 438.640625 C 614.644531 439.082031 614.089844 439.496094 613.511719 439.882812 C 612.933594 440.265625 612.339844 440.625 611.726562 440.953125 C 611.113281 441.28125 610.488281 441.578125 609.847656 441.84375 C 609.203125 442.109375 608.550781 442.34375 607.886719 442.546875 C 607.222656 442.746094 606.550781 442.917969 605.867188 443.050781 C 605.1875 443.1875 604.5 443.292969 603.8125 443.359375 C 603.121094 443.429688 602.425781 443.464844 601.730469 443.464844 Z M 357.226562 170.476562 C 356.75 170.476562 356.277344 170.523438 355.808594 170.617188 C 355.339844 170.710938 354.882812 170.847656 354.441406 171.03125 C 354.003906 171.214844 353.582031 171.4375 353.1875 171.703125 C 352.789062 171.96875 352.421875 172.269531 352.082031 172.609375 C 351.746094 172.945312 351.445312 173.3125 351.179688 173.710938 C 350.914062 174.109375 350.691406 174.527344 350.507812 174.96875 C 350.324219 175.410156 350.1875 175.863281 350.09375 176.332031 C 350 176.800781 349.953125 177.273438 349.953125 177.75 L 349.953125 422.25 C 349.953125 422.730469 350 423.203125 350.09375 423.671875 C 350.1875 424.140625 350.324219 424.59375 350.507812 425.035156 C 350.691406 425.476562 350.914062 425.894531 351.179688 426.292969 C 351.445312 426.691406 351.746094 427.058594 352.082031 427.394531 C 352.421875 427.734375 352.789062 428.035156 353.1875 428.300781 C 353.582031 428.566406 354.003906 428.789062 354.441406 428.972656 C 354.882812 429.15625 355.339844 429.292969 355.808594 429.386719 C 356.277344 429.480469 356.75 429.523438 357.226562 429.523438 L 601.730469 429.523438 C 602.210938 429.523438 602.683594 429.480469 603.152344 429.386719 C 603.621094 429.292969 604.074219 429.15625 604.515625 428.972656 C 604.957031 428.789062 605.375 428.566406 605.773438 428.300781 C 606.171875 428.035156 606.539062 427.734375 606.875 427.394531 C 607.214844 427.058594 607.515625 426.691406 607.78125 426.292969 C 608.046875 425.894531 608.269531 425.476562 608.453125 425.035156 C 608.636719 424.59375 608.773438 424.140625 608.867188 423.671875 C 608.960938 423.203125 609.003906 422.730469 609.003906 422.25 L 609.003906 177.746094 C 609.003906 177.269531 608.960938 176.796875 608.867188 176.328125 C 608.773438 175.859375 608.636719 175.402344 608.453125 174.960938 C 608.269531 174.523438 608.046875 174.101562 607.78125 173.707031 C 607.515625 173.308594 607.214844 172.941406 606.875 172.601562 C 606.539062 172.265625 606.171875 171.964844 605.773438 171.699219 C 605.375 171.433594 604.957031 171.210938 604.515625 171.027344 C 604.074219 170.84375 603.621094 170.707031 603.152344 170.613281 C 602.683594 170.519531 602.210938 170.472656 601.730469 170.472656 Z M 357.226562 170.476562 " fill-opacity="1" fill-rule="nonzero"/><path fill="#000000" d="M 402.675781 419.917969 L 373.230469 419.917969 C 372.769531 419.917969 372.316406 419.875 371.867188 419.785156 C 371.417969 419.695312 370.980469 419.5625 370.558594 419.386719 C 370.136719 419.210938 369.734375 418.996094 369.351562 418.742188 C 368.972656 418.488281 368.621094 418.199219 368.296875 417.875 C 367.972656 417.550781 367.683594 417.199219 367.429688 416.816406 C 367.175781 416.4375 366.960938 416.035156 366.785156 415.613281 C 366.609375 415.1875 366.476562 414.75 366.390625 414.300781 C 366.300781 413.851562 366.257812 413.398438 366.257812 412.941406 L 366.257812 250.976562 C 366.257812 250.515625 366.300781 250.0625 366.390625 249.613281 C 366.476562 249.164062 366.609375 248.730469 366.785156 248.304688 C 366.960938 247.882812 367.175781 247.480469 367.429688 247.097656 C 367.683594 246.71875 367.972656 246.367188 368.296875 246.042969 C 368.621094 245.71875 368.972656 245.429688 369.351562 245.175781 C 369.734375 244.917969 370.136719 244.703125 370.558594 244.527344 C 370.980469 244.355469 371.417969 244.222656 371.867188 244.132812 C 372.316406 244.042969 372.769531 243.996094 373.230469 243.996094 L 402.675781 243.996094 C 403.132812 243.996094 403.585938 244.042969 404.039062 244.132812 C 404.488281 244.222656 404.921875 244.355469 405.347656 244.527344 C 405.769531 244.703125 406.171875 244.917969 406.550781 245.171875 C 406.933594 245.429688 407.285156 245.71875 407.609375 246.042969 C 407.933594 246.367188 408.222656 246.71875 408.476562 247.097656 C 408.730469 247.480469 408.945312 247.882812 409.121094 248.304688 C 409.296875 248.726562 409.429688 249.164062 409.519531 249.613281 C 409.609375 250.0625 409.652344 250.515625 409.652344 250.976562 L 409.652344 412.941406 C 409.652344 413.398438 409.609375 413.851562 409.519531 414.304688 C 409.429688 414.753906 409.296875 415.1875 409.121094 415.613281 C 408.945312 416.035156 408.730469 416.4375 408.476562 416.816406 C 408.222656 417.199219 407.933594 417.550781 407.609375 417.875 C 407.285156 418.199219 406.933594 418.488281 406.550781 418.742188 C 406.171875 418.996094 405.769531 419.210938 405.347656 419.386719 C 404.921875 419.5625 404.488281 419.695312 404.039062 419.785156 C 403.589844 419.875 403.132812 419.917969 402.675781 419.917969 Z M 380.199219 405.984375 L 395.703125 405.984375 L 395.703125 257.949219 L 380.199219 257.949219 Z M 387.28125 230.519531 C 385.625 230.539062 383.984375 230.390625 382.359375 230.074219 C 380.734375 229.757812 379.15625 229.28125 377.628906 228.640625 C 376.097656 228.003906 374.652344 227.21875 373.28125 226.289062 C 371.914062 225.355469 370.652344 224.296875 369.5 223.105469 C 368.378906 221.925781 367.386719 220.648438 366.515625 219.277344 C 365.644531 217.90625 364.914062 216.460938 364.320312 214.949219 C 363.726562 213.433594 363.285156 211.878906 362.992188 210.28125 C 362.699219 208.679688 362.5625 207.066406 362.582031 205.441406 C 362.582031 190.972656 373.492188 180.058594 387.960938 180.058594 C 402.433594 180.058594 412.953125 190.675781 413.007812 205.328125 C 413.078125 206.941406 412.980469 208.542969 412.726562 210.132812 C 412.46875 211.726562 412.054688 213.277344 411.488281 214.785156 C 410.917969 216.296875 410.203125 217.730469 409.34375 219.097656 C 408.484375 220.460938 407.5 221.726562 406.386719 222.894531 C 401.640625 227.808594 394.863281 230.503906 387.28125 230.503906 Z M 387.953125 194.011719 C 381.222656 194.011719 376.523438 198.714844 376.523438 205.441406 C 376.523438 211.871094 381.046875 216.539062 387.28125 216.539062 C 391.101562 216.539062 394.238281 215.382812 396.347656 213.199219 C 397.300781 212.1875 398.011719 211.023438 398.484375 209.714844 C 398.953125 208.40625 399.144531 207.058594 399.054688 205.671875 C 399.054688 205.59375 399.054688 205.515625 399.054688 205.441406 C 399.050781 198.515625 394.695312 194.011719 387.953125 194.011719 Z M 412.976562 205.441406 Z M 412.976562 205.441406 " fill-opacity="1" fill-rule="nonzero"/><path fill="#000000" d="M 589.414062 419.917969 L 559.960938 419.917969 C 559.503906 419.917969 559.050781 419.875 558.601562 419.785156 C 558.152344 419.695312 557.714844 419.5625 557.292969 419.386719 C 556.867188 419.210938 556.46875 418.996094 556.085938 418.742188 C 555.707031 418.488281 555.351562 418.199219 555.027344 417.875 C 554.707031 417.550781 554.417969 417.199219 554.164062 416.816406 C 553.90625 416.4375 553.691406 416.035156 553.519531 415.613281 C 553.34375 415.1875 553.210938 414.75 553.121094 414.300781 C 553.03125 413.851562 552.988281 413.398438 552.988281 412.941406 L 552.988281 319.574219 C 552.988281 292.449219 542.722656 278.691406 522.480469 278.691406 C 505.132812 278.691406 493.496094 291.34375 489.664062 303.878906 C 489.625 303.996094 489.589844 304.109375 489.546875 304.222656 C 488.550781 306.957031 487.957031 311.195312 487.957031 315.558594 L 487.957031 412.941406 C 487.957031 413.398438 487.914062 413.851562 487.824219 414.300781 C 487.734375 414.75 487.605469 415.1875 487.429688 415.609375 C 487.253906 416.035156 487.039062 416.4375 486.785156 416.816406 C 486.53125 417.199219 486.242188 417.550781 485.917969 417.875 C 485.59375 418.199219 485.242188 418.488281 484.859375 418.742188 C 484.480469 418.996094 484.078125 419.210938 483.65625 419.386719 C 483.230469 419.5625 482.796875 419.695312 482.347656 419.785156 C 481.898438 419.875 481.445312 419.917969 480.984375 419.917969 L 451.539062 419.917969 C 451.082031 419.917969 450.625 419.875 450.175781 419.785156 C 449.726562 419.695312 449.292969 419.5625 448.867188 419.386719 C 448.445312 419.210938 448.042969 418.996094 447.664062 418.742188 C 447.28125 418.488281 446.929688 418.199219 446.605469 417.875 C 446.28125 417.550781 445.992188 417.199219 445.738281 416.816406 C 445.484375 416.4375 445.269531 416.035156 445.09375 415.613281 C 444.917969 415.1875 444.785156 414.753906 444.695312 414.304688 C 444.605469 413.851562 444.5625 413.398438 444.5625 412.941406 L 444.5625 294.804688 C 444.5625 276.769531 444.167969 263.8125 443.242188 251.484375 C 443.207031 251.007812 443.21875 250.527344 443.28125 250.054688 C 443.347656 249.578125 443.457031 249.113281 443.617188 248.660156 C 443.773438 248.207031 443.976562 247.777344 444.226562 247.363281 C 444.472656 246.953125 444.761719 246.574219 445.085938 246.21875 C 445.414062 245.867188 445.773438 245.554688 446.164062 245.277344 C 446.554688 245 446.96875 244.761719 447.410156 244.570312 C 447.847656 244.378906 448.304688 244.234375 448.773438 244.136719 C 449.242188 244.039062 449.71875 243.988281 450.199219 243.988281 L 476.300781 243.988281 C 476.738281 243.988281 477.175781 244.027344 477.605469 244.113281 C 478.039062 244.195312 478.460938 244.316406 478.867188 244.476562 C 479.277344 244.640625 479.667969 244.839844 480.039062 245.074219 C 480.410156 245.308594 480.753906 245.578125 481.074219 245.878906 C 481.394531 246.179688 481.683594 246.507812 481.945312 246.863281 C 482.203125 247.222656 482.425781 247.597656 482.613281 247.996094 C 482.800781 248.394531 482.949219 248.804688 483.054688 249.230469 C 483.164062 249.65625 483.234375 250.089844 483.261719 250.527344 L 483.8125 259.402344 C 487.128906 256.164062 490.75 253.308594 494.671875 250.835938 C 505.582031 243.945312 518.570312 240.308594 532.1875 240.308594 C 541.316406 240.308594 558.863281 242.308594 573.855469 255.722656 C 588.84375 269.136719 596.375 289.457031 596.375 316.230469 L 596.375 412.941406 C 596.375 413.398438 596.332031 413.851562 596.242188 414.300781 C 596.152344 414.75 596.023438 415.1875 595.847656 415.609375 C 595.671875 416.03125 595.457031 416.433594 595.203125 416.8125 C 594.949219 417.195312 594.664062 417.546875 594.339844 417.871094 C 594.015625 418.195312 593.664062 418.484375 593.285156 418.738281 C 592.902344 418.992188 592.503906 419.210938 592.078125 419.386719 C 591.65625 419.558594 591.222656 419.691406 590.773438 419.78125 C 590.324219 419.871094 589.871094 419.917969 589.414062 419.917969 Z M 566.933594 405.984375 L 582.4375 405.984375 L 582.4375 316.230469 C 582.4375 258.730469 543.992188 254.265625 532.1875 254.265625 C 507.515625 254.265625 491.253906 268.648438 484.824219 280.96875 C 484.53125 281.535156 484.167969 282.050781 483.730469 282.515625 C 483.292969 282.980469 482.804688 283.378906 482.257812 283.707031 C 481.714844 284.039062 481.132812 284.289062 480.519531 284.460938 C 479.90625 284.632812 479.28125 284.71875 478.644531 284.71875 L 477.972656 284.71875 C 477.53125 284.71875 477.097656 284.679688 476.664062 284.597656 C 476.234375 284.515625 475.8125 284.390625 475.40625 284.230469 C 474.996094 284.066406 474.605469 283.867188 474.234375 283.632812 C 473.863281 283.398438 473.519531 283.128906 473.199219 282.828125 C 472.878906 282.527344 472.589844 282.199219 472.332031 281.84375 C 472.070312 281.488281 471.847656 281.109375 471.664062 280.710938 C 471.476562 280.3125 471.328125 279.902344 471.21875 279.476562 C 471.109375 279.050781 471.042969 278.617188 471.015625 278.179688 L 469.75 257.949219 L 457.660156 257.949219 C 458.261719 268.496094 458.527344 279.988281 458.527344 294.835938 L 458.527344 405.984375 L 474.03125 405.984375 L 474.03125 315.585938 C 474.03125 309.589844 474.867188 303.941406 476.394531 299.65625 C 477.894531 294.859375 480.058594 290.378906 482.886719 286.21875 C 485.710938 282.0625 489.078125 278.402344 492.988281 275.238281 C 495.058594 273.554688 497.253906 272.0625 499.582031 270.757812 C 501.90625 269.453125 504.324219 268.355469 506.839844 267.464844 C 509.355469 266.574219 511.925781 265.90625 514.554688 265.457031 C 517.183594 265.007812 519.832031 264.785156 522.496094 264.789062 C 550.75 264.789062 566.949219 284.777344 566.949219 319.617188 Z M 566.933594 405.984375 " fill-opacity="1" fill-rule="nonzero"/></svg>