<svg xmlns="http://www.w3.org/2000/svg" xmlns:xlink="http://www.w3.org/1999/xlink" width="1280" zoomAndPan="magnify" viewBox="0 0 960 599.999999" height="800" preserveAspectRatio="xMidYMid meet" version="1.0"><defs><clipPath id="6f23dfea20"><path d="M 102 0 L 518.25 0 L 518.25 600 L 102 600 Z M 102 0 " clip-rule="nonzero"/></clipPath></defs><path fill="#000000" d="M 64.972656 514.269531 L 7.324219 514.269531 C 3.710938 514.269531 0.777344 511.335938 0.777344 507.722656 L 0.777344 23.785156 C 0.777344 10.761719 11.375 0.164062 24.398438 0.164062 L 47.882812 0.164062 C 60.90625 0.164062 71.503906 10.761719 71.503906 23.785156 L 71.503906 507.722656 C 71.519531 511.335938 68.585938 514.269531 64.972656 514.269531 Z M 13.871094 501.175781 L 58.425781 501.175781 L 58.425781 23.785156 C 58.425781 17.976562 53.707031 13.257812 47.898438 13.257812 L 24.398438 13.257812 C 18.589844 13.257812 13.871094 17.976562 13.871094 23.785156 Z M 13.871094 501.175781 " fill-opacity="1" fill-rule="nonzero"/><path fill="#000000" d="M 64.972656 78.503906 L 7.324219 78.503906 C 3.710938 78.503906 0.777344 75.570312 0.777344 71.957031 C 0.777344 68.34375 3.710938 65.410156 7.324219 65.410156 L 64.972656 65.410156 C 68.585938 65.410156 71.519531 68.34375 71.519531 71.957031 C 71.519531 75.570312 68.585938 78.503906 64.972656 78.503906 Z M 64.972656 78.503906 " fill-opacity="1" fill-rule="nonzero"/><path fill="#000000" d="M 36.140625 599.808594 C 33.332031 599.808594 30.835938 598.019531 29.9375 595.347656 L 1.105469 509.808594 C -0.0546875 506.386719 1.785156 502.664062 5.222656 501.515625 C 8.648438 500.359375 12.355469 502.199219 13.515625 505.636719 L 36.140625 572.761719 L 58.765625 505.636719 C 59.925781 502.214844 63.636719 500.371094 67.058594 501.515625 C 70.480469 502.675781 72.324219 506.386719 71.175781 509.808594 L 42.359375 595.347656 C 41.445312 598.019531 38.949219 599.808594 36.140625 599.808594 Z M 36.140625 599.808594 " fill-opacity="1" fill-rule="nonzero"/><path fill="#000000" d="M 35.691406 474.527344 C 32.078125 474.527344 29.144531 471.59375 29.144531 467.980469 L 29.144531 358.683594 C 29.144531 355.070312 32.078125 352.140625 35.691406 352.140625 C 39.304688 352.140625 42.238281 355.070312 42.238281 358.683594 L 42.238281 467.980469 C 42.238281 471.59375 39.304688 474.527344 35.691406 474.527344 Z M 35.691406 474.527344 " fill-opacity="1" fill-rule="nonzero"/><path fill="#000000" d="M 35.691406 227.539062 C 32.078125 227.539062 29.144531 224.609375 29.144531 220.992188 L 29.144531 111.699219 C 29.144531 108.082031 32.078125 105.152344 35.691406 105.152344 C 39.304688 105.152344 42.238281 108.082031 42.238281 111.699219 L 42.238281 220.992188 C 42.238281 224.609375 39.304688 227.539062 35.691406 227.539062 Z M 35.691406 227.539062 " fill-opacity="1" fill-rule="nonzero"/><path fill="#000000" d="M 43.984375 330.808594 L 28.300781 330.808594 C 24.683594 330.808594 21.753906 327.875 21.753906 324.261719 C 21.753906 320.648438 24.683594 317.714844 28.300781 317.714844 L 43.984375 317.714844 C 47.597656 317.714844 50.53125 320.648438 50.53125 324.261719 C 50.53125 327.875 47.597656 330.808594 43.984375 330.808594 Z M 43.984375 330.808594 " fill-opacity="1" fill-rule="nonzero"/><path fill="#000000" d="M 43.984375 296.386719 L 28.300781 296.386719 C 24.683594 296.386719 21.753906 293.453125 21.753906 289.839844 C 21.753906 286.226562 24.683594 283.292969 28.300781 283.292969 L 43.984375 283.292969 C 47.597656 283.292969 50.53125 286.226562 50.53125 289.839844 C 50.53125 293.453125 47.597656 296.386719 43.984375 296.386719 Z M 43.984375 296.386719 " fill-opacity="1" fill-rule="nonzero"/><path fill="#000000" d="M 43.984375 261.964844 L 28.300781 261.964844 C 24.683594 261.964844 21.753906 259.03125 21.753906 255.417969 C 21.753906 251.800781 24.683594 248.871094 28.300781 248.871094 L 43.984375 248.871094 C 47.597656 248.871094 50.53125 251.800781 50.53125 255.417969 C 50.53125 259.03125 47.597656 261.964844 43.984375 261.964844 Z M 43.984375 261.964844 " fill-opacity="1" fill-rule="nonzero"/><g clip-path="url(#6f23dfea20)"><path fill="#000000" d="M 511.636719 599.808594 L 109.390625 599.808594 C 105.777344 599.808594 102.84375 596.875 102.84375 593.261719 L 102.84375 6.710938 C 102.84375 3.097656 105.777344 0.164062 109.390625 0.164062 L 511.648438 0.164062 C 515.261719 0.164062 518.195312 3.097656 518.195312 6.710938 L 518.195312 593.261719 C 518.183594 596.875 515.25 599.808594 511.636719 599.808594 Z M 115.9375 586.714844 L 505.101562 586.714844 L 505.101562 13.257812 L 115.9375 13.257812 Z M 115.9375 586.714844 " fill-opacity="1" fill-rule="nonzero"/></g><path fill="#000000" d="M 471.484375 197.960938 L 149.542969 197.960938 C 145.929688 197.960938 142.996094 195.027344 142.996094 191.414062 C 142.996094 187.800781 145.929688 184.867188 149.542969 184.867188 L 471.484375 184.867188 C 475.097656 184.867188 478.03125 187.800781 478.03125 191.414062 C 478.03125 195.027344 475.097656 197.960938 471.484375 197.960938 Z M 471.484375 197.960938 " fill-opacity="1" fill-rule="nonzero"/><path fill="#000000" d="M 471.484375 235.4375 L 149.542969 235.4375 C 145.929688 235.4375 142.996094 232.503906 142.996094 228.890625 C 142.996094 225.277344 145.929688 222.34375 149.542969 222.34375 L 471.484375 222.34375 C 475.097656 222.34375 478.03125 225.277344 478.03125 228.890625 C 478.03125 232.503906 475.097656 235.4375 471.484375 235.4375 Z M 471.484375 235.4375 " fill-opacity="1" fill-rule="nonzero"/><path fill="#000000" d="M 471.484375 68.207031 L 386.042969 68.207031 C 382.425781 68.207031 379.496094 65.273438 379.496094 61.660156 C 379.496094 58.046875 382.425781 55.113281 386.042969 55.113281 L 471.484375 55.113281 C 475.097656 55.113281 478.03125 58.046875 478.03125 61.660156 C 478.03125 65.273438 475.097656 68.207031 471.484375 68.207031 Z M 471.484375 68.207031 " fill-opacity="1" fill-rule="nonzero"/><path fill="#000000" d="M 471.484375 98.972656 L 358.507812 98.972656 C 354.890625 98.972656 351.960938 96.042969 351.960938 92.425781 C 351.960938 88.8125 354.890625 85.882812 358.507812 85.882812 L 471.484375 85.882812 C 475.097656 85.882812 478.03125 88.8125 478.03125 92.425781 C 478.03125 96.042969 475.097656 98.972656 471.484375 98.972656 Z M 471.484375 98.972656 " fill-opacity="1" fill-rule="nonzero"/><path fill="#000000" d="M 471.484375 129.726562 L 358.507812 129.726562 C 354.890625 129.726562 351.960938 126.796875 351.960938 123.179688 C 351.960938 119.566406 354.890625 116.636719 358.507812 116.636719 L 471.484375 116.636719 C 475.097656 116.636719 478.03125 119.566406 478.03125 123.179688 C 478.03125 126.796875 475.097656 129.726562 471.484375 129.726562 Z M 471.484375 129.726562 " fill-opacity="1" fill-rule="nonzero"/><path fill="#000000" d="M 471.484375 160.480469 L 358.507812 160.480469 C 354.890625 160.480469 351.960938 157.550781 351.960938 153.933594 C 351.960938 150.320312 354.890625 147.390625 358.507812 147.390625 L 471.484375 147.390625 C 475.097656 147.390625 478.03125 150.320312 478.03125 153.933594 C 478.03125 157.550781 475.097656 160.480469 471.484375 160.480469 Z M 471.484375 160.480469 " fill-opacity="1" fill-rule="nonzero"/><path fill="#000000" d="M 228.710938 153.894531 C 228.097656 153.894531 227.457031 153.8125 226.84375 153.621094 C 223.378906 152.585938 221.402344 148.945312 222.4375 145.480469 L 247.957031 59.792969 C 248.789062 57.007812 251.335938 55.113281 254.230469 55.113281 C 257.121094 55.113281 259.671875 57.007812 260.503906 59.792969 L 286.019531 145.480469 C 287.054688 148.945312 285.078125 152.585938 281.613281 153.621094 C 278.148438 154.65625 274.507812 152.679688 273.472656 149.214844 L 254.230469 84.597656 L 234.984375 149.214844 C 234.125 152.066406 231.535156 153.894531 228.710938 153.894531 Z M 228.710938 153.894531 " fill-opacity="1" fill-rule="nonzero"/><path fill="#000000" d="M 271.820312 127.394531 L 236.648438 127.394531 C 233.035156 127.394531 230.101562 124.464844 230.101562 120.847656 C 230.101562 117.234375 233.035156 114.304688 236.648438 114.304688 L 271.820312 114.304688 C 275.4375 114.304688 278.367188 117.234375 278.367188 120.847656 C 278.367188 124.464844 275.4375 127.394531 271.820312 127.394531 Z M 271.820312 127.394531 " fill-opacity="1" fill-rule="nonzero"/><path fill="#000000" d="M 177.554688 153.894531 C 158.175781 153.894531 142.996094 142.082031 142.996094 127 C 142.996094 123.386719 145.929688 120.453125 149.542969 120.453125 C 153.15625 120.453125 156.089844 123.386719 156.089844 127 C 156.089844 134.488281 165.921875 140.800781 177.554688 140.800781 C 189.1875 140.800781 199.023438 134.472656 199.023438 127 C 199.023438 119.402344 189.542969 115.476562 175.085938 110.347656 C 160.042969 105.015625 142.996094 98.972656 142.996094 82.0625 C 142.996094 66.976562 158.175781 55.167969 177.554688 55.167969 C 196.933594 55.167969 212.113281 66.976562 212.113281 82.0625 C 212.113281 85.675781 209.183594 88.609375 205.566406 88.609375 C 201.953125 88.609375 199.023438 85.675781 199.023438 82.0625 C 199.023438 74.574219 189.1875 68.261719 177.554688 68.261719 C 165.921875 68.261719 156.089844 74.589844 156.089844 82.0625 C 156.089844 89.195312 165.347656 93.011719 179.464844 98.019531 C 194.765625 103.445312 212.113281 109.597656 212.113281 127.011719 C 212.113281 142.082031 196.933594 153.894531 177.554688 153.894531 Z M 177.554688 153.894531 " fill-opacity="1" fill-rule="nonzero"/><path fill="#000000" d="M 358.492188 68.207031 L 286.457031 68.207031 C 282.839844 68.207031 279.910156 65.273438 279.910156 61.660156 C 279.910156 58.046875 282.839844 55.113281 286.457031 55.113281 L 358.492188 55.113281 C 362.105469 55.113281 365.039062 58.046875 365.039062 61.660156 C 365.039062 65.273438 362.121094 68.207031 358.492188 68.207031 Z M 358.492188 68.207031 " fill-opacity="1" fill-rule="nonzero"/><path fill="#000000" d="M 322.472656 153.894531 C 318.859375 153.894531 315.929688 150.960938 315.929688 147.347656 L 315.929688 61.660156 C 315.929688 58.046875 318.859375 55.113281 322.472656 55.113281 C 326.089844 55.113281 329.019531 58.046875 329.019531 61.660156 L 329.019531 147.347656 C 329.019531 150.960938 326.101562 153.894531 322.472656 153.894531 Z M 322.472656 153.894531 " fill-opacity="1" fill-rule="nonzero"/><path fill="#000000" d="M 452.882812 310.121094 L 168.144531 310.121094 C 154.273438 310.121094 142.996094 298.839844 142.996094 284.972656 C 142.996094 271.101562 154.273438 259.820312 168.144531 259.820312 L 452.882812 259.820312 C 466.753906 259.820312 478.03125 271.101562 478.03125 284.972656 C 478.03125 298.839844 466.738281 310.121094 452.882812 310.121094 Z M 168.144531 272.914062 C 161.503906 272.914062 156.089844 278.328125 156.089844 284.972656 C 156.089844 291.613281 161.503906 297.027344 168.144531 297.027344 L 452.882812 297.027344 C 459.539062 297.027344 464.9375 291.613281 464.9375 284.972656 C 464.9375 278.328125 459.523438 272.914062 452.882812 272.914062 Z M 168.144531 272.914062 " fill-opacity="1" fill-rule="nonzero"/><path fill="#000000" d="M 165.675781 390.148438 C 164 390.148438 162.320312 389.507812 161.054688 388.226562 L 147.960938 375.132812 C 145.410156 372.570312 145.410156 368.4375 147.960938 365.871094 C 150.511719 363.320312 154.65625 363.320312 157.21875 365.871094 L 165.691406 374.339844 L 203.617188 336.414062 C 206.167969 333.863281 210.3125 333.863281 212.878906 336.414062 C 215.429688 338.976562 215.429688 343.109375 212.878906 345.675781 L 170.328125 388.226562 C 169.03125 389.507812 167.355469 390.148438 165.675781 390.148438 Z M 165.675781 390.148438 " fill-opacity="1" fill-rule="nonzero"/><path fill="#000000" d="M 252.414062 390.148438 C 250.738281 390.148438 249.058594 389.507812 247.792969 388.226562 L 234.699219 375.132812 C 232.148438 372.570312 232.148438 368.4375 234.699219 365.871094 C 237.25 363.320312 241.394531 363.320312 243.960938 365.871094 L 252.429688 374.339844 L 290.355469 336.414062 C 292.921875 333.863281 297.050781 333.863281 299.617188 336.414062 C 302.167969 338.976562 302.167969 343.109375 299.617188 345.675781 L 257.066406 388.226562 C 255.769531 389.507812 254.09375 390.148438 252.414062 390.148438 Z M 252.414062 390.148438 " fill-opacity="1" fill-rule="nonzero"/><path fill="#000000" d="M 339.152344 390.148438 C 337.476562 390.148438 335.796875 389.507812 334.53125 388.226562 L 321.4375 375.132812 C 318.875 372.570312 318.875 368.4375 321.4375 365.871094 C 324 363.308594 328.148438 363.320312 330.699219 365.871094 L 339.167969 374.339844 L 377.082031 336.414062 C 379.644531 333.863281 383.777344 333.863281 386.339844 336.414062 C 388.890625 338.976562 388.890625 343.109375 386.339844 345.675781 L 343.789062 388.226562 C 342.507812 389.507812 340.832031 390.148438 339.152344 390.148438 Z M 339.152344 390.148438 " fill-opacity="1" fill-rule="nonzero"/><path fill="#000000" d="M 425.890625 390.148438 C 424.214844 390.148438 422.539062 389.507812 421.269531 388.226562 L 408.175781 375.132812 C 405.625 372.570312 405.625 368.4375 408.175781 365.871094 C 410.742188 363.320312 414.871094 363.320312 417.4375 365.871094 L 425.90625 374.339844 L 463.832031 336.414062 C 466.398438 333.863281 470.53125 333.863281 473.09375 336.414062 C 475.644531 338.976562 475.644531 343.109375 473.09375 345.675781 L 430.542969 388.226562 C 429.246094 389.507812 427.570312 390.148438 425.890625 390.148438 Z M 425.890625 390.148438 " fill-opacity="1" fill-rule="nonzero"/><path fill="#000000" d="M 452.882812 464.832031 L 168.144531 464.832031 C 154.273438 464.832031 142.996094 453.550781 142.996094 439.683594 C 142.996094 425.8125 154.273438 414.535156 168.144531 414.535156 L 452.882812 414.535156 C 466.753906 414.535156 478.03125 425.8125 478.03125 439.683594 C 478.03125 453.550781 466.738281 464.832031 452.882812 464.832031 Z M 168.144531 427.625 C 161.503906 427.625 156.089844 433.039062 156.089844 439.683594 C 156.089844 446.335938 161.503906 451.738281 168.144531 451.738281 L 452.882812 451.738281 C 459.539062 451.738281 464.9375 446.324219 464.9375 439.683594 C 464.9375 433.039062 459.523438 427.625 452.882812 427.625 Z M 168.144531 427.625 " fill-opacity="1" fill-rule="nonzero"/><path fill="#000000" d="M 165.675781 544.859375 C 164 544.859375 162.320312 544.21875 161.054688 542.9375 L 147.960938 529.84375 C 145.410156 527.28125 145.410156 523.148438 147.960938 520.582031 C 150.511719 518.035156 154.65625 518.035156 157.21875 520.582031 L 165.691406 529.054688 L 203.617188 491.125 C 206.167969 488.574219 210.3125 488.574219 212.878906 491.125 C 215.429688 493.6875 215.429688 497.820312 212.878906 500.386719 L 170.328125 542.9375 C 169.03125 544.21875 167.355469 544.859375 165.675781 544.859375 Z M 165.675781 544.859375 " fill-opacity="1" fill-rule="nonzero"/><path fill="#000000" d="M 252.414062 544.859375 C 250.738281 544.859375 249.058594 544.21875 247.792969 542.9375 L 234.699219 529.84375 C 232.148438 527.28125 232.148438 523.148438 234.699219 520.582031 C 237.25 518.035156 241.394531 518.035156 243.960938 520.582031 L 252.429688 529.054688 L 290.355469 491.125 C 292.921875 488.574219 297.050781 488.574219 299.617188 491.125 C 302.167969 493.6875 302.167969 497.820312 299.617188 500.386719 L 257.066406 542.9375 C 255.769531 544.21875 254.09375 544.859375 252.414062 544.859375 Z M 252.414062 544.859375 " fill-opacity="1" fill-rule="nonzero"/><path fill="#000000" d="M 339.152344 544.859375 C 337.476562 544.859375 335.796875 544.21875 334.53125 542.9375 L 321.4375 529.84375 C 318.875 527.28125 318.875 523.148438 321.4375 520.582031 C 324 518.019531 328.148438 518.035156 330.699219 520.582031 L 339.167969 529.054688 L 377.082031 491.125 C 379.644531 488.574219 383.777344 488.574219 386.339844 491.125 C 388.890625 493.6875 388.890625 497.820312 386.339844 500.386719 L 343.789062 542.9375 C 342.507812 544.21875 340.832031 544.859375 339.152344 544.859375 Z M 339.152344 544.859375 " fill-opacity="1" fill-rule="nonzero"/><path fill="#000000" d="M 425.890625 544.859375 C 424.214844 544.859375 422.539062 544.21875 421.269531 542.9375 L 408.175781 529.84375 C 405.625 527.28125 405.625 523.148438 408.175781 520.582031 C 410.742188 518.035156 414.871094 518.035156 417.4375 520.582031 L 425.90625 529.054688 L 463.832031 491.125 C 466.398438 488.574219 470.53125 488.574219 473.09375 491.125 C 475.644531 493.6875 475.644531 497.820312 473.09375 500.386719 L 430.542969 542.9375 C 429.246094 544.21875 427.570312 544.859375 425.890625 544.859375 Z M 425.890625 544.859375 " fill-opacity="1" fill-rule="nonzero"/></svg>